<svg version="1" xmlns="http://www.w3.org/2000/svg" width="650.667" height="650.667" viewBox="0 0 488.000000 488.000000"><path d="M228.6.7c-.3.4-2.8.8-5.4 1-2.6.1-6.5.5-8.7.8-2.2.3-4.7.6-5.5.7-.8.1-3.2 1.4-5.5 2.9-2.2 1.5-4.2 2.3-4.3 1.8-.2-.5-1.3-1.4-2.5-2-2.1-1-2.1-1-.3.5 1.1.9 1.6 1.6 1 1.6-.5 0-.1.5.9 1.1 1.3.8 2.1.6 3.3-.5 1.7-1.8 3.9-2.2 2.9-.6-.3.5-.1 1 .5 1 .7 0 1-.6.7-1.3-.3-1 .4-1.4 2.3-1.4 2.7 0 2.7.2 1.4 2.2-1.4 2.1-3.8 2.6-6.1 1.2-.7-.4-1.4.1-1.8 1.3-.6 1.9-2.5 2.8-2.5 1.2 0-.5-1.1-1.5-2.5-2.2-1.3-.7-2.2-1.6-2-2 .3-.5-.2-1-1-1.4-2.4-.9-1.8.3 2.1 3.8 2.1 1.9 3.4 3.9 3 4.5-1 1.6-2.6 1.4-2-.2.3-.8-.3-2-1.2-2.8-1.2-.9-1.5-1-1-.2.4.7.2 1.3-.3 1.3-.6 0-1.1.5-1.1 1.1 0 .8.5.8 1.5-.1 1.7-1.4 2.1 0 .5 1.6-2.1 2.1 2.5 1.2 4.8-.9l2.3-2.1 2.5 2.8c1.4 1.5 3.2 2.5 3.9 2.2 1.4-.5 2.8 1.8 1.8 2.8-1.1 1.1-2.4.6-1.7-.6.4-.6.3-.8-.4-.4-.6.3-1.3.2-1.7-.4-.3-.5-1.1-1-1.8-1-.6 0-.2.7 1 1.5 1.5 1 1.9 2.3 1.7 4.5-.2 1.6.1 3 .6 3 .6 0 1 .5 1 1.1 0 .5-.4.7-1 .4-.5-.3-1-.1-1 .5 0 .7.7.9 1.6.6 1-.4 1.4-.2 1.1.6-.2.7-1 1.2-1.6 1-.7-.1-1 .2-.6.8.3.5.1 1-.4 1-.6 0-1.1.5-1.1 1.1 0 .5.5.7 1 .4.6-.3 1-.2 1 .4 0 1.2-1.9 2.5-2.6 1.8-.8-.7-.7-4 .1-6.2.5-1.6.5-1.7-.4-.5-.5.8-1.3 1.2-1.6.9-.7-.8.5-4 1.4-3.5.4.3.7-.4.7-1.4 0-1-.3-1.7-.7-1.4-.9.5-2.1-2.7-1.4-3.5.3-.3 1 .1 1.5.9.6.9 1 1 1 .3 0-2.1-2.1-2.5-4.1-.7-2.3 2.1-2.5.8-.2-1.8.9-1 1.2-1.8.7-1.8-.8 0-5.4 6.3-5.4 7.5 0 .3.5.5 1.1.5.5 0 .8-.4.4-.9-.3-.5-.1-1.2.5-1.6.5-.3 1-.1 1 .4 0 .6.5 1.1 1.1 1.1.5 0 .7-.5.4-1-.3-.6-.2-1 .3-1 .6 0 1.3.7 1.6 1.6.9 2.3.8 2.4-1.1 1.8-1.5-.5-1.5-.4-.3.5.8.5 1.1 1.3.7 1.7-.4.4-1.3.2-1.9-.4-.7-.7-1.6-1.2-2.1-1.2s.2 1 1.7 2.1c1.5 1.2 2.5 2.4 2.2 2.7-.3.3-1.5-.3-2.6-1.3s-2-1.3-2-.7c0 .7.5 1.2 1.2 1.2.6 0 .2 1-.9 2.2-1.1 1.3-2.8 3.6-3.8 5.3-1.8 3.2-1 2.3 3.7-3.7 1.6-2.2 2.4-2.5 3.9-1.7 1.1.5 1.9 1.7 1.9 2.5 0 1.4-.2 1.4-1.6 0-2.3-2.4-2.7-1.9-.7.8 1 1.3 2 2.1 2.3 1.7.3-.4 1.4-.6 2.6-.5 1.6.1 2.1-.4 1.9-2-.2-2.8 1.3-4.6 3.8-4.6 1.1 0 1.7.3 1.3.7-.4.5-1.3.8-1.9.8-.7 0-1.3 1-1.3 2.2-.1 1.2.2 2 .7 1.7.4-.2.6-1 .3-1.7-.3-.8.4-1.3 1.7-1.4 1.7-.2 1.9.1 1 1-.6.6-1.1 1.6-1.1 2.1 0 .6.5.3 1.1-.7.9-1.5 1.3-1.6 2.7-.5 1.5 1.1 1.5 1.1.4-.3-1-1.3-.9-1.9.4-3s1.5-1.1 1.4.2c-.4 2.8 0 5.4.8 4.4.4-.6 1.8-1 3.2-1 1.7-.1 2.5-.6 2.4-1.8-.1-.9.2-1.7.7-1.7.5 0 .9.6.9 1.3 0 1.5 4.7 1.7 6.8.4.7-.5 1.2-.4 1.2.2 0 1.2 2.7 1 4.7-.2.6-.4 1.3-.1 1.6.5.3 1 .7 1 2-.1 1.4-1.1 1.7-1.1 1.7 0 0 .9.5.7 1.2-.5.9-1.6.7-2.3-1-3.6-1.2-1-1.8-2-1.5-2.4.3-.3 1.1.2 1.8 1 1.1 1.5 1.2 1.5 1.2 0 0-.9-.4-1.6-.7-1.6-.4 0-.6-1.3-.5-2.8.2-2.5-.1-2.9-2.4-2.7-1.4.1-3.2-.3-4-.9-1.2-.9-1.3-.8-.6.4.6 1.2.5 1.3-.5.3-1.8-1.7-.4-2.9 1.5-1.3 1.6 1.3 1.7 1.2 1.9-2.3.1-1.6.7-2.1 2.1-1.9 1.6.2 1.7.1.5-.7-.8-.5-1.8-.7-2.4-.4-.5.4-.7 0-.3-.9.3-.9.2-2-.1-2.4-.4-.5.1-.1 1.1 1 1.5 1.6 2 1.7 3 .6.9-1 .9-1.1 0-.6-.8.4-1.1 0-.8-1.2.2-1-.1-2.5-.6-3.3-.7-1.2-.9-1.2-.9 0 0 .8-.3 1.1-.6.8-.4-.4-.1-1.4.7-2.4 1.2-1.4 1.2-1.6 0-.8-1 .5-1.2.4-.7-.4.4-.6 1.2-.9 1.7-.6.5.4.9.1.9-.4 0-1.5-1.3-1.4-3 .1-1.2 1.1-1.2 1-.1-.4.8-1.1 2.3-1.6 4.7-1.4 1.8.2 3.1 0 2.8-.5-.3-.5-.1-.9.5-.9.5 0 1.2.4 1.6.9.6 1 3.7.7 5.5-.4.6-.4 1-.3.9.2-.3 2 .2 3.4 1.1 2.8.7-.4.7-1.2.1-2.3-.8-1.4-2.8-1.7-12.9-1.7-10.3 0-11.9.2-11.4 1.5s.3 1.3-1.1.1c-1.4-1.1-2-1.1-3.4 0-1.5 1.2-1.6 1.2-1-.4.7-1.8.5-2.1-.7-1zM241.5 3c-.8.9-1.2 2-.8 2.4.4.4.8 1.5.8 2.4 0 .9.5 1.6 1.1 1.5.6-.1 1.1.5 1.1 1.3 0 1.1-.4 1.1-1.9-.3-2-1.8-3.9-1-2 .9.8.8.9 1.5.1 2.5-.7.7-.7 1.3-.2 1.3.5 0 .9 1.1.9 2.5 0 2.2-.2 2.3-1.6 1-2.2-2-2.5-1.9-2.7.5-.2 2.4 1.3 3.5 5.2 3.5 3.3 0 4 1.9 1.7 4.7-1.2 1.4-1.1 1.8.7 2.8 1.2.6 2.1 1.6 2 2.3 0 .9-.2.9-.6-.1-.2-.6-.9-1.2-1.4-1.2-.6 0-.8.4-.4.9.3.5.1 1.2-.4 1.5-.5.4-1.2.2-1.6-.4-.4-.6-1.2-.7-1.8-.3-1.9 1.2-3.6 1.2-4.3.2-.4-.6-1-.6-1.8 0-1.4 1.2-3.9.9-5.9-.7-.8-.7-2-1.1-2.7-1-2.2.5-2.1-1.7.1-3.1 1.9-1.1 2.1-1.1 1.6.3-.3.8-.1 1.8.5 2.2.7.4.8.3.4-.4s-.2-1.2.3-1.2c.6 0 1-.3 1-.8-.3-1.9.2-3.3 1.1-2.7.6.4.4 1.7-.6 3.6l-1.5 3 3.2-1.6c1.7-.9 2.8-1.2 2.5-.7-.3.6.1 1.2.9 1.5.9.4 1.2.1.8-.9-.6-1.7.8-1.8 2.7-.2 1.2 1.1 1.2 1 .2-.3-.6-.9-.9-1.9-.5-2.3.4-.4-.1-.4-1.2 0-2 .7-2 .6 0-1 1.1-1 1.4-1.4.6-1-1 .5-1.2.3-.6-.6.5-.8.4-1.1-.3-.6-.6.3-.9-.1-.7-1.1.1-1-.4-2.9-1.2-4.2-.8-1.3-1-2-.4-1.6.7.4 1 .1.9-.7-.2-.7.3-1.2 1-1 .8.1 1.1-.3.7-1-.4-.7.1-.4.9.6.9 1.1 1.6 1.5 1.6 1 0-.6-.6-1.6-1.2-2.3-1.1-1.1-1-1.2 0-.6 1.1.6 1.2.3.3-1.4-.7-1.1-.9-2.1-.5-2.1.3 0 .1-.7-.6-1.5-1.4-1.6-3.4-1-2.4.7.4.7.2.8-.5.4-.6-.4-.8-1.3-.4-1.9.4-.7 0-.6-1 .2-1.1.9-1.7 1-1.7.2 0-.6.6-1.1 1.3-1.1.6-.1.1-.7-1.3-1.4-1.3-.8-3.2-1.2-4.2-1.1-1.1.3-1.6 0-1.2-.7.4-.6-.1-.6-1.4.1-2.7 1.4-3.5 1.4-2.6-.1.4-.7.3-.8-.5-.4-.6.4-.9 1.1-.7 1.5.3.4-.8.8-2.4.8-1.7 0-2.7-.5-2.3-1 .3-.6.1-.7-.5-.3-.6.4-.9 1.3-.6 2 .6 1.6-2.1 4-3.6 3.1-.6-.3-.8-1.1-.4-1.6.3-.5 1-.7 1.5-.4.5.4.9.2.9-.3 0-.6-.8-1.3-1.7-1.7-2.7-1 .4-2.4 4.5-2 1.7.1 3.2-.1 3.2-.5 0-.8 8.8-.5 9.7.4.4.3 1.2.1 2-.6 1-.8 1.7-.8 2.5 0 1.1 1.1 4.1.5 3.4-.7-.3-.4 1.1-.7 2.9-.7 3.1 0 3.3.2 2 1.6zM209 5c0 .5-.4 1-1 1-.5 0-1-.5-1-1 0-.6.5-1 1-1 .6 0 1 .4 1 1zm20 1.3c0 .4.3.6.8.4.4-.3.8.6.8 1.9.2 2-.1 2.3-1.2 1.3-.8-.6-1.1-1.5-.9-2 .3-.4-.4-.6-1.5-.4-1.1.2-2 0-2-.6 0-.5-.5-.9-1.1-.9-.5 0-.8.4-.4.9.3.5.1 1.2-.5 1.6-.6.4-.7 1.1-.4 1.7.5.8.1.9-1.1.5-.9-.4-2.3-.2-3.1.4-1 .8-1.3.6-1.1-1 .1-1.4.6-1.9 1.7-1.6.8.2 2.1.1 2.9-.4.9-.6.2-.8-2-.7-1.9.2-3.3.7-3.2 1.3.1.6-.4 1.4-1.2 1.7-2.1.8-1.9-.8.4-2.8 1.1-1 2.4-1.5 3-1.1.6.3 1.8.2 2.7-.3 2-1.1 7.4-1.1 7.4.1zm-.3 3.9c2 1.7 4.7 1.3 3.6-.5-.4-.7.1-.6 1 .2 1.6 1.3 2.2.8 1.7-1.4-.1-.6.2-.7.6-.2 1.7 1.7 1.2 4.5-1.1 6.7-1.9 1.8-2.2 2.6-1.3 3.7 1.1 1.3 2.1 10.9 1 9.9-.2-.3-1.3-.1-2.4.5-1.7.9-1.8.8-.9-.9.6-1.1.7-2.3.3-2.7-.4-.3-.7-1.8-.7-3.2-.1-2.3 0-2.3 1.2-.7 1.3 1.7 1.3 1.7 1-.6-.3-1.8-1-2.4-2.3-2.2-1.6.2-1.5-.1.6-1.9 1.7-1.5 1.9-2 .7-1.6-1.5.6-1.6.4-.6-1.4 1-1.9.9-2-1-.9-2 1-6 0-5.3-1.4.6-1.5.1-2.6-1-2-.6.4-.8.3-.5-.4.9-1.4 3.2-1 5.4 1zm-15.6.8c.5 0 .9.4.9 1 0 1.2-2.6 1.4-3.3.2-.2-.4-.2-.2-.1.5.2.6-.6 1.1-1.7 1-1-.1-1.9-.5-1.9-1 0-.4-.5-.5-1.1-.1-.8.4-.7.9.2 1.5.7.4 1.7.5 2.1.3.4-.3.8.2.8 1 0 2.4-1.3 1.9-4.5-1.4l-2.9-3 3.2.4c1.8.2 3.5-.1 3.8-.6.3-.5 1.3-.7 2.1-.4.8.3 1.9.6 2.4.6zm2.8 2.1c-.8.5-1 .9-.5.9s1.8-.8 2.8-1.7c1.5-1.3 2.1-1.4 3.1-.4.9 1 .8 1.1-.8.6-1.6-.5-1.7-.5-.5.3.8.6 1.8.8 2.2.6.4-.3.8-.1.8.4 0 1.6-1.2 2.1-2.9 1.2-2-1-4.6.3-3.7 1.9.4.6.5 1.1.2 1.1s-1-.9-1.6-1.9c-1.1-2.2-.3-5.4 1.2-4.5.6.4.5 1-.3 1.5zm9-1.4c-.4 2.3.3 3.1 2.5 2.9 2.3-.3 3 1.4 1.3 3-.3.4-.3 1.4.2 2.3.5.9.5 2.4.2 3.4-.6 1.6-.9 1.6-1.8.5-1.3-1.6-1.3-4.9 0-4.1.6.4.7.1.2-.7-.4-.7-.2-1.6.6-2.1 1-.6.8-.8-.8-.7-1.1.1-1.9.7-1.6 1.4.6 1.5-1.4 2.8-2.2 1.4-.3-.5-.1-1 .5-1s.8-.5.5-1.1c-.5-.6-1.3-.3-2.2 1-.8 1.2-1.9 2.1-2.5 2.1-.6 0-.5-.7.3-1.7.8-.9.9-1.4.4-1.1-.6.4-1.7.3-2.4-.1-.9-.6-1-1.1-.2-1.5.6-.4 1.1-.3 1.1.3 0 .5.6.8 1.3.7 2.5-.4 3.8-1.8 3.2-3.7-.4-1.1-.2-1.9.4-1.9.6 0 1 .3 1 .7zm-10.7 4.8c.8 1.8 1.7 2.4 3 1.9 1.3-.4 1.6-.1 1.2 1-.5 1.2-1 1.3-2.6.5-1.5-.8-1.9-.8-1.4 0 .4.6.3 1.1-.3 1.1-1.5 0-4.4-4.7-3.6-6 1.1-1.7 2.5-1.1 3.7 1.5zm10.8 4c.9-.5 1.1-.4.6.3-.4.6.1 2.4 1.1 3.9.9 1.5 1.3 2.5.9 2.1-1.4-1.2-5.1 2.1-5.1 4.6-.1 1.6.4 2.2 1.2 1.9.7-.3 1.3-.1 1.3.5 0 .8-1.3.9-5.4.3-.6 0-.2-.7.9-1.4 1.4-1.1 1.5-1.6.5-2.2-.9-.6-1.1-.4-.5.6.6 1.1.5 1.1-.5.2-1.1-1-1-1.7.4-3.7 1.5-2.4 2.8-3.1 5-2.7.5.1.4-.5-.3-1.3s-2-1.2-2.8-.9c-1.1.5-1.4.3-.8-.6.6-1 .2-1-1.6 0-2.9 1.6-5 1.7-6.6.6-.7-.5-1.7-.6-2.3-.2-.5.3-1 .2-1-.4 0-1.4 1.8-2.3 2.5-1.2.7 1.2 7.5.5 8.9-.9.6-.6 1.2-.6 1.7.1.4.7 1.2.8 1.9.4zm-15.4 4c-.2.7.2 1.6 1 1.9.9.4 1.2 1.1.8 1.8-.5.9-.3.9.9-.1.9-.7 1.7-.9 1.7-.4 0 1.2 3.9 1.1 4.4-.2.2-.6-1-1-3.1-.9-2.2.1-3.6-.3-4-1.2-.8-2 .4-2.9 2-1.6 1.4 1.2 3.4 1.1 5.5-.1 2.9-1.9 2.9.7 0 4.9-2.9 4.3-3.2 4.5-4.2 2.7-.6-1.1-1.6-1.8-2.3-1.6-.6.2-1.7-.6-2.4-1.9-1.7-3.1-2.2-6.1-.8-5.3.6.4.8 1.3.5 2z"/><path d="M236.4 3.7c-1.2.9-2.1 1-2.8.3-1.3-1.3-2.6-1.3-2.6.2 0 .6.3.8.7.5.3-.4 1.2.1 1.9 1.1.8 1 1.3 1.2 1.4.4 0-.6.5-1.2 1.1-1.2.5 0 .8.4.5.9-.3.5 0 1.4.8 2 1 .8 1.6.8 2.5-.3.9-1 .9-1.6.1-2.1s-.8-1.1-.1-1.9c1.5-1.7-1.1-1.7-3.5.1zm2.1.2c-.3.5-.1 1.2.5 1.6.6.4.8 1.1.4 1.6-.9 1.4-2.3.1-1.9-1.9.5-2.3.4-2.2 1.1-2.2.3 0 .3.4-.1.9zM237.1 23.5c.9 1.1 1.5 2.8 1.4 3.7-.2 1 .1 2 .6 2.4.5.3.7 1 .3 1.5-.4.6-1 .6-1.8 0-.9-.8-1.3-.7-1.3.3 0 1.4 2.1 1.6 3.3.3.4-.4 1.3-.2 2 .4.9.7 1.2.6 1-.5-.1-.9-.5-1.9-.9-2.2-.4-.4-.1-1.4.5-2.2 2.1-2.5 1.7-3.9-1.1-3.7-1.4.1-3.3-.3-4.1-.9-1.2-.8-1.1-.6.1.9zm5.8 1.4c.2.1-.3.9-1.2 1.9-1.1 1.2-1.4 2.2-.7 3 .7.9.7.9-.2.2-1.9-1.6-1.8-5.8.1-5.5.9.2 1.8.4 2 .4zM231 32c0 .5.5 1 1 1 .6 0 1-.5 1-1 0-.6-.4-1-1-1-.5 0-1 .4-1 1zM227.5 12c.3.5.8 1 1.1 1 .2 0 .4-.5.4-1 0-.6-.5-1-1.1-1-.5 0-.7.4-.4 1zM232.7 12.4c-.3.8-.2 1.8.2 2.1 1.1.6 3.6-2.3 2.7-3.2-.3-.3-.6 0-.6.8 0 1.1-.2 1.2-.9.1-.7-1.1-.9-1.1-1.4.2zM231 24.2c0 .4.4.8.9.8.6 0 1.2-.4 1.5-.8.3-.5-.1-.9-.9-.9s-1.5.4-1.5.9zM227 22.1c0 .5.5.7 1 .4.6-.3 1-.8 1-1.1 0-.2-.4-.4-1-.4-.5 0-1 .5-1 1.1zM221.9 27.7c-1.3 1.7-1.3 1.7.6.3 1.1-.8 2.2-1.6 2.4-1.7.2-.2 0-.3-.6-.3s-1.7.8-2.4 1.7zM260.5 1c-.4.6-.4 1.4-.1 1.7.3.3 0 1.3-.6 2.1-1 1.2-.8 1.8 1.1 3.3 1.3 1 2.8 1.6 3.3 1.2.6-.3-.1-1.2-1.6-2-1.4-.7-2.6-1.6-2.6-1.9 0-.2.9 0 2.1.6 1.1.7 2.3.9 2.6.7.2-.3-.4-.8-1.4-1.1-1-.3-1.9-1.6-2-2.8-.2-2.2-.1-2.2 1.2.2 1.3 2.2 2 2.1 1.6-.3-.1-.5.3-.6.7-.3.5.3.8 1.7.6 3.1-.3 3 2.3 4.6 3.7 2.4 1.3-2.1 1.1-2.9-.6-2.3-.8.4-1.5.1-1.5-.6 0-.6.5-.8 1-.5.6.3 1-.3 1-1.4 0-1.6-.6-1.9-2.7-1.7-1.6.2-3.3-.1-4-.6-.7-.6-1.4-.5-1.8.2zM271 2.5c-1.1 1.3-1.1 1.9.3 3.3 1 .9 1.7 1.1 1.7.5 0-.7-.5-1.5-1.1-1.9-.8-.4-.7-.9.2-1.5.7-.4 1.1-1.1.8-1.4-.4-.3-1.2.2-1.9 1z"/><path d="M273.9 2.7c-.1.4-.2 1.7-.3 2.8-.1 1.4-.7 1.9-2 1.7-1.8-.3-1.8-.2-.6 1.3 1.3 1.6 1.5 1.6 3.2-.4.9-1.2 1.5-3 1.2-3.9-.5-1.4-.3-1.4.6.1.9 1.4.9 2.2.1 3-1.6 1.6-1.4 2.3.7 2.4 1.4.1 1.8-.5 1.7-2.6-.1-1.6.4-2.8 1.1-2.8.7 0 1 .6.7 1.4-.4.9 0 1.1 1.3.7 1.5-.5 1.6-.4.4.4-.8.6-1.8.8-2.2.6-1.5-.9-.8.7 1.2 2.8 1.1 1.2 1.8 2.4 1.5 2.7-.3.2-1.1-.3-1.8-1.3-1.2-1.7-1.4-1.7-2.8 0-1.3 1.6-1.2 1.7.6 1 1.7-.6 1.7-.4-.4 1.8-1.4 1.5-2 2.6-1.4 2.6.6 0 1.5-.6 2.1-1.3 1-1.1 3.9-1.4 7.7-.8.6.1.2.6-.7 1.2-.9.5-1.6 1.5-1.4 2.2.1.6.1.9-.1.4-.3-.4-.9-.5-1.4-.1-1.6 1-1-.8.9-2.3 1.6-1.4 1.6-1.4-.3-.8-1.1.4-2.7.8-3.4.9-.8.2-1.7.8-1.9 1.4-.2.7.3 1 1.2.6.9-.3 1.6-.1 1.6.6 0 .6-.4.9-.9.6-.5-.3-1.4.1-2.1.9-.9 1.1-.9 1.9.3 3.5.9 1.2 1.8 1.7 2.1 1.1.4-.5.2-1.2-.4-1.6-1.3-.8-1.3-2.5.1-2.5.5 0 .7.4.4 1-.3.5-.1 1 .4 1 1.3 0 1.4 1 .2 2.9-.9 1.4-4.4.2-4.1-1.5.1-.5-.2-1-.7-1.1-2.3-.8-.8 3.4 1.5 4.5 2.5 1.2 2.9 1 4.9-1.5 2-2.5 2-2.8.5-3.9-.9-.7-1.4-1.6-.9-2 .4-.4.7-.2.7.5s.4 1 .8.7c.4-.2 1.4.4 2.1 1.6.7 1.1.8 1.7.2 1.3-.6-.3-1.1-.3-1.1.2 0 .4-2 2.9-4.4 5.4-3.4 3.6-4.7 4.4-5.7 3.5-.9-.8-1.1-.7-.6.7.4 1 .3 1.6-.3 1.2-1.5-1-7-1.4-7-.6 0 1.6 1.4 2 2.7 1 .8-.7 1.3-.8 1.3-.1 0 .5 1.3.9 3 .8 1.6-.1 3.2.3 3.4.8.2.6.5.1.5-1.1.1-1.2.5-2.4 1-2.7.4-.3.6.6.3 1.9-.3 1.8 0 2.5 1.1 2.5.8 0 2.4.3 3.4.6 1.5.5 1.5.4.3-.5-1.3-.9-1.3-1.1.3-1.1.9 0 1.7.5 1.7 1.1 0 .6.7.8 1.6.5.8-.3 1.2-.2.9.4-.3.6-.1 1 .4 1 .6 0 1.1-.5 1.1-1.2 0-.6.6-.4 1.3.7.8 1 1.9 1.5 2.5 1.1.6-.3 1.4-.2 1.7.4.4.6 1.4 1 2.3.8 1-.1 2.7.3 3.9 1 1.2.7 2.9.9 3.7.6.9-.3 1.6-.2 1.6.3 0 1 6.9 3.6 9.5 3.6.8 0 1.5.4 1.5.8 0 .7 4.9 2.4 6.3 2.1.4-.1.7.3.7.9 0 .5.5.7 1 .4.6-.3 1-.3 1 .2 0 1.6 4.8 3.1 6.1 1.9.9-.8 1-.8.5.1-.7 1.4 5.1 4.6 6.7 3.6.5-.3.7-.1.4.4-.8 1.3 2 2.6 3.5 1.6.6-.3.8-.2.5.4-.3.5 2 2.5 5.1 4.3 9 5.4 20.4 13.4 25.1 17.7 1.4 1.2 2.8 2 3.3 1.7.4-.3.8.2.8 1 0 .9.4 1.6.9 1.6 1.3 0 20.4 19.7 26.2 27 21.5 27.1 36.9 61.2 42.4 93.4.9 5 1.8 10.2 2.1 11.6 1 4.6 1.3 41.4.3 48-2.3 16.2-2.6 17.8-5.5 29.2-12.1 48-43.9 93.4-84.5 120.8-3.7 2.5-6.5 4.8-6.3 5.2.2.4-.1 1-.7 1.4-.8.4-.9.3-.5-.4 1.1-1.8 0-1.4-4.9 1.6-2.5 1.6-4.2 3.2-3.8 3.7.5.4.3.5-.4.1-1.4-.8-6.3 1.3-6.3 2.7 0 .6-.3.8-.6.4-.3-.3-2.7.6-5.4 1.9-2.6 1.3-5.3 2.4-6 2.4-.6 0-.8.5-.4 1.2.4.6.3.8-.3.5-.6-.4-2.9.1-5.2 1-3.1 1.2-4.1 2.1-3.8 3.3.2.9-.1 1.7-.8 1.7-.7 0-1.1-.6-.8-1.3.6-1.6-.8-1.3-9.7 1.6-6.8 2.3-9.7 3.1-11.7 3.2-1.4.1-1.7 1.1-.6 2.1.3.4 1.6-.1 2.7-1 2.1-1.8 2.1-1.8.2.4-1.8 2.2-1.8 2.2.3 2 1.2-.1 2.1-.7 2.1-1.3 0-.7.7-1.5 1.5-1.8 1.4-.5 1.4-.4.1 1.6-2.1 2.9-4.6 3.1-7.4.5-1.5-1.4-2.5-1.8-3-1-.4.6-1.8 1.1-3.2 1.1-5.5 0-6.6.3-7.8 2.2-1.1 1.8-1 1.9 1 1.6 1.3-.3 2.5-.5 2.8-.5.3-.1-.2-.6-1-1.1-.9-.6-1-1-.3-1 1.8 0 2.7 2.1 1.2 3-.7.5-1.6.7-2 .4-1.3-.7-2.4 1.9-2.4 5.6 0 2.3-.4 3.4-1.2 3.3-.7-.2-1.3.2-1.3.7 0 .6.6 1 1.3 1 .8 0 .7.4-.3 1-.8.5-2.4.7-3.5.4-1.9-.5-1.9-.5-.1 1 1.4 1.1 2.4 1.3 3.8.5 1.1-.6 2.2-.8 2.5-.5.4.3 1.2.1 1.8-.4.9-.8 1.4-.6 1.8.5.4.9 1.3 1.2 2.4.9 1.5-.5 1.5-.4.3.5-.9.6-1.8.7-2.4.1-2.2-2.2-2.8-.8-.6 1.5l2.3 2.5-2.3 2.5c-1.3 1.4-1.8 2.5-1.2 2.5.7 0 1.2.5 1.2 1.1 0 .8-.4.8-1.3 0-1.1-.8-1.4-.5-1.4 1.9 0 3.1 1.3 4.1 4.3 3.5 1.1-.2 2.5-.4 3.2-.4.7-.1 1-.6.7-1.1-.3-.6-.1-1 .4-1 .6 0 1.1.6 1.2 1.2 0 .7.4.4.8-.7.5-1.2.4-2.6-.2-3.4-.8-1-.7-1.6.5-2.5 1.6-1.2 1.6-1.4 0-2.9-1.5-1.6-1.5-1.8.1-3.2.9-.8 1.5-1.2 1.2-.9-.2.3.5 1.6 1.6 2.7 1.9 2 1.9 2.2.3 3.4-1 .7-1.4 1.3-1 1.3.5 0 .4.6-.3 1.3-.8 1-.7 1.7.2 2.7.9 1 .9 1.1 0 .6-.8-.4-1.3-.1-1.3.9 0 1.2.4 1.4 1.9.5 1.1-.5 2.9-1 4-1s3-1 4.1-2.3c1.6-1.7 2-1.8 1.4-.4-.8 2.2 1.4 2 3.4-.3.8-.8 1.1-1 .8-.4-.4.9.5.9 3.4.2 2.2-.6 4-1.4 4-1.9 0-.4.9-.6 2-.4 1.1.2 2 .1 2-.3s1-.8 2.3-1c1.3-.1 4.1-.9 6.3-1.8 2.1-1 4.6-1.9 5.5-2 3.3-.7 15.8-7.2 15.1-7.9-.4-.5-.2-.5.5-.1 1.5.8 14.4-5.5 13.6-6.7-.3-.6-.1-.7.5-.3.6.3 1.6.1 2.4-.6.7-.7 2-1.4 2.8-1.6.8-.2 1.7-.8 1.8-1.3.2-.5.8-.9 1.4-.9 2.1 0 17.8-11.2 17.1-12.2-.3-.6-.1-.8.5-.4.6.3 4.6-2.2 8.9-5.6 22.8-18.2 44.5-43.8 59.8-70.8 14.7-25.9 26.2-61.3 29.1-89.5.4-3.9.8-8.4 1-10 .6-5.6.6-30 0-37.5-2.8-31.9-10.2-59.5-23.7-87.7-7.4-15.4-20-35-31.2-48.6C421.1 75.8 392.4 49 389.1 49c-.6 0-1.1-.4-1.1-.9 0-1-21-14.8-21.8-14.3-.2.2-.8-.1-1.1-.6-1.1-1.8-12.2-7.2-13.4-6.5-.5.3-.7.1-.4-.4.8-1.3-2-2.6-3.5-1.6-.6.3-.8.2-.5-.4.6-.9-9.3-5.6-12-5.6-.7 0-1.3-.4-1.3-.8 0-.7-4.9-2.4-6.2-2.1-.5.1-.8-.2-.8-.7 0-.6-.9-.8-2-.6-1.1.2-2 0-2-.4 0-1.3-4.9-1.9-5.4-.7-.2.6-.5.4-.5-.5-.1-2.1-11-5.2-12.9-3.7-1 .9-1.2.8-1-.2.4-1.5-4.9-3.2-7.6-2.4-1.2.4-1.6.2-1.2-.5.4-.7-.1-1.1-1.3-1.1-1.1 0-2.3.5-2.6 1.1-.4.5-1.2.8-1.8.6-.7-.2-2.1 0-3.2.6-1.8.9-1.9.9-.6-.7.9-1 2.1-1.4 3.4-1 1.4.4 1.7.3 1.2-.6-.5-.8-2-1-4.4-.6-2.2.4-3.1.3-2.3-.2.9-.6.4-.9-1.7-1-1.7 0-4-.4-5.1-.7-1.1-.3-2.1-.3-2.1.2zM294 8c.8.5 1.1 1 .5 1-.5 0-1.7-.5-2.5-1s-1-1-.5-1c.6 0 1.7.5 2.5 1zm4.6.6c-.3 1.9-3.6 4.1-3.6 2.4 0-.5.7-1 1.5-1 .9 0 1.2-.6.9-1.5-.4-.8-.2-1.5.4-1.5.6 0 .9.7.8 1.6zm-12.5 2.5c.5 1.1 1.4 1.7 1.9 1.4.5-.3 1.5.3 2.2 1.4 1.1 1.9 1.4 1.9 3 .4 1-.9 1.8-1.1 1.8-.6 0 .6-.7 1.4-1.6 1.7-.8.3-1.2 1.1-.8 1.7.4.8.9.7 1.5-.2.6-1 .9-1 .9-.2 0 2-1.8 2.4-3.4.7-.9-.8-1.6-2-1.6-2.5s-.3-.8-.7-.7c-1.6.3-4.3-1.5-4.3-2.9 0-.8-.4-1.2-.9-.9-.5.3-1.1-.1-1.4-.9-.9-2.1 2.1-.7 3.4 1.6zm2.6-2.5c-.3.3-1.2.4-1.9.1-.8-.3-.5-.6.6-.6 1.1-.1 1.7.2 1.3.5zm4.1 2.7c.2.9-.1 1.7-.7 1.7s-.8-.7-.5-1.5c.5-1.1.2-1.3-1.2-.8-1.2.4-1.5.3-1-.6 1-1.6 3-.9 3.4 1.2zm14.8-1.1c.4.7.3 1-.1.5-.5-.4-1.6.5-2.6 2-1.6 2.4-1.8 2.5-1.6.6 0-1.2.4-2 .8-1.7.4.2.9-.3 1.3-1.1.7-1.8 1.3-1.9 2.2-.3zm-5.6 2.3c0 .1-1.2.2-2.6.2-1.7 0-2.2-.2-1.3-.7 1-.7 3.9-.3 3.9.5zm9-.7c0 .5-.7.9-1.5.9s-1.2-.4-.9-.9c.3-.4.9-.8 1.5-.8.5 0 .9.4.9.8zm-5.2 3.7c-.6 1.4-1.3 2.3-1.5 2.1-.5-.5 1.5-4.6 2.2-4.6.3 0-.1 1.1-.7 2.5zm6.5-.8c-.6 1.6-.5 1.7 1.3.3s1.8-1.4.5.2c-.7 1-1.7 1.5-2.2 1.2-.5-.3-.9 0-.9.7s-.3 1-.6.7c-.3-.4-.1-1.6.6-2.7 1.3-2.5 2.2-2.8 1.3-.4zm-15.6 1.5c-.3.8-.6.5-.6-.6-.1-1.1.2-1.7.5-1.3.3.3.4 1.2.1 1.9zm4.5-.8c.6-.4.5.3-.2 1.5-.6 1.2-1.5 1.9-2.1 1.6-.5-.4-.9.3-.9 1.4 0 1.2.5 2 1.1 1.8.6-.1 1.4.5 1.6 1.3.4 1.2.3 1.2-.5.2-.5-.8-1.3-1.3-1.8-1.3-.5.1-.9-.9-.9-2.2 0-1.3.5-2.1 1.3-1.9.9.2 1.2-.5.8-2-.3-1.3-.3-1.7 0-1 .3.6 1 .9 1.6.6zm17.2 1.2c.3.8.2 1.2-.4.9-.6-.3-1-1-1-1.6 0-1.4.7-1.1 1.4.7zM289 17c0 .5-.8 1-1.7 1-1.5 0-1.6-.2-.3-1 1.9-1.2 2-1.2 2 0zm32.5 1c-.4.6-.1 1.9.6 2.8 1.2 1.6 1.2 1.6-.5 0-1.6-1.4-1.5-3.8 0-3.8.3 0 .2.5-.1 1zm4.5-.5c0 .2-.6.8-1.3 1.4-1 .8-1.4.7-1.4-.2 0-.8.6-1.4 1.4-1.4.7 0 1.3.1 1.3.2zM308.6 20c0 1.2-.4 1.6-.9 1.1s-.6-1.4-.3-2c1-1.5 1.2-1.4 1.2.9zm8.4-.1c0 1.3-2.9.8-3.4-.5-.3-.7.2-1 1.5-.7 1 .3 1.9.9 1.9 1.2zm-27.1.2c-1.7 1.1-3.9 1.2-3.9.1 0-.4 1.2-.8 2.7-.9 1.9-.1 2.2.1 1.2.8zm13.5.1c-.3.4-.9.8-1.5.8-.5 0-.9-.4-.9-.8 0-.5.7-.9 1.5-.9s1.2.4.9.9zm9 .4c.3.8.2 1.2-.4.9-.6-.3-1-1-1-1.6 0-1.4.7-1.1 1.4.7zm17.7.1c1.3 1.6 1.2 1.7-.3.4-1.5-1.1-2.1-1.1-3.5 0-1.6 1.3-1.7 1.2-.4-.4.7-.9 1.7-1.7 2.1-1.7.4 0 1.4.8 2.1 1.7zm-38.1.8c-1.4.8-2 1.5-1.5 1.6.6.1 1.5.2 2 .3.6 0 1.9.7 3 1.3 1.8 1.2 1.8 1.4.4 2.5-.9.7-1.7 1.7-1.7 2.3-.3 1.8-2.6 1-3.8-1.2l-1.1-2.3-3.6 3.1c-2 1.7-3.4 3.5-3.1 4 .3.5 0 .9-.5.9-.6 0-1.1-.3-1.1-.8 0-1.2 4.4-5.8 6.8-7.1 2-1.1 2.3-.9 3.2 1.4.5 1.4 1.4 2.5 2 2.5.6 0 .8-.5.5-1-.3-.6.1-1.3 1-1.6 1.2-.5 1.3-.9.4-2-1.6-2-3-1.7-2.2.3.3 1.2 0 1-1.1-.5-1-1.2-2.1-2-2.6-1.7-.5.3-1.2 0-1.6-.7-.4-.7-.4-1 .1-.6.4.4 1.7.1 2.9-.7 1.1-.8 2.5-1.5 3.1-1.5.5.1-.1.7-1.5 1.5zm4.4 1.1c.3.8.2 1.2-.4.9-.6-.3-1-1-1-1.6 0-1.4.7-1.1 1.4.7zm24.2 2c.1.9-.1 1.3-.4.9-.4-.4-.7-1-.7-1.3 0-.4-.4-1.4-.9-2.2-.7-1.2-.6-1.3.4-.3.8.7 1.5 2 1.6 2.9zm-16.1-.7c-.3.6-1.1 1.1-1.6 1.1s-.4-.6.3-1.4c1.4-1.6 2.4-1.3 1.3.3zm5.8.2c-.8.8-1.3.7-1.8-.2-.5-.8-.4-1 .3-.5.7.4 1.2.2 1.2-.5s.3-.9.7-.6c.4.4.2 1.2-.4 1.8zm7.4 1.1c-.3.8-.6.5-.6-.6-.1-1.1.2-1.7.5-1.3.3.3.4 1.2.1 1.9zm12.3-1.7c0 .2-.6.8-1.3 1.4-1 .8-1.4.7-1.4-.2 0-.8.6-1.4 1.4-1.4.7 0 1.3.1 1.3.2zm-5.4 3.4c-1.7 1.8-3.8 2.2-5.2.8-.4-.3.3-.5 1.4-.2 1.1.2 2.6-.3 3.3-1.1.6-.8 1.4-1.4 1.7-1.4.3 0-.3.9-1.2 1.9zm-25.9 1.3c-.2 1.2-.9 2.4-1.5 2.6-.7.2-1 .7-.8 1.1.3.4-.5.8-1.7.8-1.9.2-1.8 0 .7-1.6 1.5-1 2.7-2.1 2.7-2.5-.2-1.5-.1-2.6.4-2.6.3 0 .3 1 .2 2.2zm10.7.2c-.3.9-1 1.6-1.5 1.6s-.4-.9.3-2c1.4-2.2 2.1-2 1.2.4zm38.9-.9c-.3.9-.8 1.4-1 1.1-.3-.3-.2-.9.2-1.5.9-1.6 1.5-1.3.8.4zm-42.9.3c-.5.4-1.2 1.1-1.5 1.5-.3.5-.9.2-1.2-.5-.3-.9.3-1.4 1.5-1.5 1.1-.1 1.6.1 1.2.5zm9.2.4c.5.7.3.8-.6.3-1-.6-1.2-.4-.6 1.1.5 1.4.4 1.6-.5.7-.6-.6-.8-1.6-.5-2.2.9-1.4 1.3-1.4 2.2.1zm3.8.4c.3.8.2 1.2-.4.9-.6-.3-1-1-1-1.6 0-1.4.7-1.1 1.4.7zm-29.9 1.5c-.5 1.5-.4 1.9.4 1.5.6-.4 1.5-.5 2.1-.1 1.1.7.2 3.5-1.2 3.5-.6 0-.5-.6.2-1.5 1-1.2.7-1.4-1.7-1.2-1.5.1-3.2.6-3.6 1.2-.5.6-.7.4-.4-.5.2-.8.9-1.4 1.5-1.3.6.2 1.4-.6 1.7-1.7.4-1.1.9-2 1.1-2 .3 0 .2 1-.1 2.1zm48 .7c-.3.3-1.1 0-1.8-.7-.9-1-.8-1.1.6-.5 1 .3 1.5.9 1.2 1.2zm-4.5.7c-1.4 1.7-3 2-3 .4 0-.5.4-.8.9-.4.5.3 1.2.1 1.6-.5.3-.5.9-1 1.2-1 .3 0 0 .7-.7 1.5zm-31.4 1.4c-1.5 1-2.7 2.2-2.7 2.7.1 1.4-2.2 1-2.5-.4-.1-.7 0-.8.3-.2.2.5.9 1 1.4 1 .6 0 .7-.5.4-1-.3-.6.1-1.3.9-1.6.9-.3 1.4-.9 1.2-1.3-.3-.4.5-.8 1.7-.8 1.9-.2 1.8 0-.7 1.6zm6.8-1.1c.3.5-.1.9-.9.9s-1.5-.4-1.5-.9c0-.4.4-.8.9-.8.6 0 1.2.4 1.5.8zm6.1 2.1c-.6.5-2.5-1-2.5-2 0-.5.6-.4 1.4.3.8.7 1.2 1.5 1.1 1.7zm5.5-1.7c0 1.1-1.2 1-3-.2-1.2-.7-1-.9.8-.7 1.2 0 2.2.5 2.2.9zm-14.5 1.9c1.1 1.6.1 1.9-1.3.3-.7-.8-.8-1.4-.3-1.4s1.3.5 1.6 1.1zm4.8.6c-.5 1.2-.3 1.4.7.8.9-.6 1.1-.4.5.4-.5.9-1.1.9-1.7.3-.6-.6-.7-1.5-.4-2.1 1.1-1.7 1.6-1.3.9.6zm19.6 1.7c-.3.3-1.1-.5-1.8-1.7-1.3-2.1-1.2-2.1.5-.5 1 1 1.6 2 1.3 2.2zm31.5-1.8c.3.8.2 1.2-.4.9-.6-.3-1-1-1-1.6 0-1.4.7-1.1 1.4.7zM294.1 37c.5 0 .9.5.9 1 0 .6-.7.6-1.9-.2-1.2-.7-1.7-1.8-1.3-2.7.6-1.4.7-1.4 1 .1.2 1 .8 1.8 1.3 1.8zm-9.1-1.6c0 .7-4 1.4-4.4.7-.3-.4.6-.8 2-.9 1.3-.1 2.4 0 2.4.2zm17.4 1.1c-.4.8-.8 1.5-1 1.5-.2 0-.4-.7-.4-1.5s.4-1.5 1-1.5c.5 0 .7.7.4 1.5zm23.7.2c1.3 1.7 1.3 1.7-.6.3-1.1-.8-2.2-1.6-2.4-1.7-.2-.2 0-.3.6-.3s1.7.8 2.4 1.7zm6.3-.9c.3.5-.1.9-.9.9s-1.2-.4-.9-.9c.3-.4.7-.8.9-.8.2 0 .6.4.9.8zm22.2.7c-.1.8-.5 1.7-.8 2.1-.5.4-.4-1.6.1-3.4.3-.9.9.1.7 1.3zm-64.9.1c-.3.3-1.2.4-1.9.1-.8-.3-.5-.6.6-.6 1.1-.1 1.7.2 1.3.5zm15.8 3.3c-.6.5-2.5-1-2.5-2 0-.5.6-.4 1.4.3.8.7 1.2 1.5 1.1 1.7zm45.5-2.5c0 .3-.4.8-1 1.1-.5.3-1 .1-1-.4 0-.6.5-1.1 1-1.1.6 0 1 .2 1 .4zm-41 2c0 .8-.7 1.6-1.5 2-1.2.4-1.3.2-.2-1.4 1.4-2.4 1.7-2.5 1.7-.6zm11 .1c0 .1-.8.5-1.8.7-1.1.3-1.9 0-1.9-.7s.8-1 1.9-.7c1 .2 1.8.6 1.8.7zm-23 .5c0 .5-.2 1-.4 1-.3 0-.8-.5-1.1-1-.3-.6-.1-1 .4-1 .6 0 1.1.4 1.1 1zm4.5 0c.3.5.1 1-.4 1-.6 0-1.1-.5-1.1-1 0-.6.2-1 .4-1 .3 0 .8.4 1.1 1zm10.5 1.7c0 .5-.5 1.5-1 2.3-.7 1.2-.9 1-.7-.8.1-1.9 1.7-3.3 1.7-1.5zm8.4.5c-.3.5-.2 1.5.3 2.1.4.7.1.5-.8-.5-.9-.9-2-1.4-2.4-1-.5.4-.5.2-.2-.4.3-.6 1.3-1.1 2.1-1.1s1.3.4 1 .9zm4.6-.7c0 .2-.6.8-1.3 1.4-1 .8-1.4.7-1.4-.2 0-.8.6-1.4 1.4-1.4.7 0 1.3.1 1.3.2zm3.5.5c.3.6-.1.7-.9.4-1.8-.7-2.1-1.4-.7-1.4.6 0 1.3.4 1.6 1zm25.1.5c-.1.8-.5 1.7-.8 2.1-.5.4-.4-1.6.1-3.4.3-.9.9.1.7 1.3zm-26.6.9c0 .2-.8 1-1.7 1.7-1.6 1.3-1.7 1.2-.4-.4 1.3-1.6 2.1-2.1 2.1-1.3zm4.7 3.9c.1 1.1.1 1.8 0 1.6-.2-.2-.8-1.1-1.5-2-.9-1.2-.9-1.6.1-1.6.7 0 1.4.9 1.4 2zM351 46c0 .5-.5 1-1.1 1-.5 0-.7-.5-.4-1 .3-.6.8-1 1.1-1 .2 0 .4.4.4 1zm-24.6 2.6c.3.8.2 1.2-.4.9-.6-.3-1-1-1-1.6 0-1.4.7-1.1 1.4.7zm30.3 1.9c0 .8-.4 1.2-.9.9-.5-.3-.6-1-.3-1.5.9-1.3 1.2-1.1 1.2.6zm-25.6 1.2c1.3 1.6 1.2 1.7-.3.4-1.7-1.3-2.2-2.1-1.4-2.1.2 0 1 .8 1.7 1.7zm13.9-1.3c0 .2-.8 1-1.7 1.7-1.6 1.3-1.7 1.2-.4-.4 1.3-1.6 2.1-2.1 2.1-1.3zm-7 3.2c0 .8-1.9 1.3-2.4.6-.3-.5.1-.9.9-.9s1.5.2 1.5.3zm16.6 2c.1.9 0 1.3-.4 1-.3-.4-.7-1.4-.8-2.2-.1-.9 0-1.3.4-1 .3.4.7 1.4.8 2.2zm-6.2.2c.3.5-.1.9-.9.9s-1.2-.4-.9-.9c.3-.4.7-.8.9-.8.2 0 .6.4.9.8zm2 4c.3.5-.1.9-.9.9s-1.2-.4-.9-.9c.3-.4.7-.8.9-.8.2 0 .6.4.9.8zm4.2.7c-.1.8-.5 1.7-.8 2.1-.5.4-.4-1.6.1-3.4.3-.9.9.1.7 1.3zm-5.9 367c0 .8-.4 1.2-.9.9-.5-.3-.6-1-.3-1.5.9-1.3 1.2-1.1 1.2.6zm.8 4.5c.3.6-.1.7-.9.4-1.8-.7-2.1-1.4-.7-1.4.6 0 1.3.4 1.6 1zm4.9 1.8c.2.4-.5.9-1.7.9-1.7.2-1.9 0-.7-.7 1.8-1.2 1.8-1.2 2.4-.2zm-25.7 1.9c-.4.3-.1 1.3.6 2.2 1.1 1.4 1 1.4-.5.2-1.6-1.2-1.6-3.1-.1-3.1.4 0 .3.3 0 .7zm29.8.3c.3.5.1 1-.4 1-.6 0-1.1-.5-1.1-1 0-.6.2-1 .4-1 .3 0 .8.4 1.1 1zm-25.8 1.5c0 .8-.4 1.2-.9.9-.5-.3-.6-1-.3-1.5.9-1.3 1.2-1.1 1.2.6zm18.3.5c0 .5-.5 1-1.1 1-.5 0-.7-.5-.4-1 .3-.6.8-1 1.1-1 .2 0 .4.4.4 1zm-24.4 2.6c.1.9 0 1.3-.4 1-.3-.4-.7-1.4-.8-2.2-.1-.9 0-1.3.4-1 .3.4.7 1.4.8 2.2zm6.7 1.6c-.6.7-.9 2.1-.8 3 .2 1 0 2-.4 2.3-.4.2-.7-.6-.7-1.8.2-2.3 1.3-4.7 2.3-4.7.3 0 .1.6-.4 1.2zm21.3.3c-.1.8-.5 1.7-.8 2.1-.5.4-.4-1.6.1-3.4.3-.9.9.1.7 1.3zm-42.2.4c.3.5-.1 1.1-.9 1.4-.9.4-1.2.1-.8-.9.6-1.6 1-1.7 1.7-.5zm32.6-.5c0 .2-.8 1-1.7 1.7-1.6 1.3-1.7 1.2-.4-.4 1.3-1.6 2.1-2.1 2.1-1.3zm-24.3 2.6c-.1 1.1-.5 2-.9 2-1 0-1-.4-.2-2.4.8-2.2 1.3-2 1.1.4zm2.9.8c-1.7 1.6-1.8 1.6-.5-.5.7-1.2 1.5-2 1.8-1.7.3.2-.3 1.2-1.3 2.2zm-17.1-.9c.3.5 0 1.3-.6 1.7-.7.4-.9.3-.5-.4.3-.5 0-1.3-.6-1.5-.9-.4-1-.6-.1-.6.6-.1 1.4.3 1.8.8zm-2.5 2.7c0 .8-.4 1.4-.8 1.4s-.8-.9-.8-1.9c0-1.1.4-1.7.8-1.5.4.3.8 1.2.8 2zm4.1.5c-.5 1.3-1 1.9-1 1.2-.1-1.5 1-4.5 1.5-4 .3.2 0 1.5-.5 2.8zm29.4-2.1c-.3.5-1.2 1-1.8 1-.7 0-.6-.4.3-1 1.9-1.2 2.3-1.2 1.5 0zm-16.6 3.3c.8 1 .7 1.4-.2 1.4-.8 0-1.4-.6-1.4-1.4 0-.7.1-1.3.2-1.3.2 0 .8.6 1.4 1.3zm15.8.2c0 .8-.4 1.2-.9.9-.5-.3-.6-1-.3-1.5.9-1.3 1.2-1.1 1.2.6zm-46.1 1.1c-.5 1.2-.2 1.5.9 1 .9-.3 1.4-.2 1.1.3-.3.5.1 1.2.9 1.5 1.3.4 1.4 1 .5 2.6-.6 1.1-1.5 2-2.1 2-.6 0-.3-.7.6-1.6.9-.9 1.3-1.9 1-2.3-.4-.3-1.5.5-2.6 1.8-1 1.3-1.9 1.9-1.9 1.3 0-.5.7-1.5 1.5-2.2 1.4-1.1 1.3-1.4-.1-2.5-1-.6-1.4-1.7-1-2.3 1.1-1.8 1.9-1.4 1.2.4zm22.4-.6c0 .5-.4 1-1 1-.5 0-1-.5-1-1 0-.6.5-1 1-1 .6 0 1 .4 1 1zm20.4-.2c.3.5-.1.9-.9.9s-1.5-.4-1.5-.9c0-.4.4-.8.9-.8.6 0 1.2.4 1.5.8zm23.1.1c-.9.8-3.6 1-3 .2.2-.4 1.1-.8 2-.8.8 0 1.3.3 1 .6zm-70 2c-.3.6-1.1 1.1-1.6 1.1s-.4-.6.3-1.4c1.4-1.6 2.4-1.3 1.3.3zm39.7-.4c.2-.3.5.2.5 1 0 1.9 0 1.9-2.3-.7-1.2-1.4-1.3-1.8-.3-1 .9.6 1.8 1 2.1.7zm-25.5 1c0 .8-.4 1.5-.9 1.5-.4 0-.8-.7-.8-1.5s.4-1.5.8-1.5c.5 0 .9.7.9 1.5zm3.9-.6c-.4.5 0 1.2.6 1.4.8.3.6.6-.4.6-1.8.1-2.4-1-1.1-2.2.9-1 1.5-.8.9.2zm36.9.1c.3.6-.1.7-.9.4-1.8-.7-2.1-1.4-.7-1.4.6 0 1.3.4 1.6 1zm-44.5 1c0 .5-.2 1-.4 1-.3 0-.8-.5-1.1-1-.3-.6-.1-1 .4-1 .6 0 1.1.4 1.1 1zm13.5 0c.4.6-.1.7-1.1.3-1.3-.5-1.5-.3-.9.7.5.9.4 1.1-.4.6-.6-.4-.9-1.2-.6-1.7.8-1.2 2.2-1.2 3 .1zm-21.5 1.1c0 .5-.4.8-.9.5-.5-.3-1.1.1-1.5.9-.3.8-1 1.5-1.6 1.5-.5 0-.2-.9.7-2 1.9-2.2 3.3-2.6 3.3-.9zm35.1.6c1.3 1.6 1.2 1.7-.3.4-1.7-1.3-2.2-2.1-1.4-2.1.2 0 1 .8 1.7 1.7zm9.2-.5c-.4.7-.8 2.3-.9 3.6 0 1.2-.4 2.5-.7 2.8-.3.3-.5-.7-.3-2.3.2-2.8 1.2-5.3 2.2-5.3.3 0 .2.6-.3 1.2zm-49.5 1.2c-.7.8-1.5 1.2-1.7 1-.3-.3-1 .5-1.7 1.7-1.1 2.2-1.1 2.2-1.1-.4 0-1.5.3-2.5.6-2.2.4.2 1.3 0 2.1-.6 2.2-1.3 3.2-1.1 1.8.5zm31.2.1c.5-.3 1.2 0 1.6.6.4.8.3.9-.4.5s-1.2-.1-1.3.6c0 1-.2 1-.6 0-.2-.6-.9-1-1.3-.7-.5.3-1.2 0-1.6-.6-.4-.8-.3-.9.4-.5s1.2.1 1.3-.6c0-1 .2-1 .6 0 .2.6.9 1 1.3.7zm-15.5.5c.3.6-.1.7-.9.4-1.8-.7-2.1-1.4-.7-1.4.6 0 1.3.4 1.6 1zm3.5 0c0 .5-.4 1-1 1-.5 0-1-.5-1-1 0-.6.5-1 1-1 .6 0 1 .4 1 1zm4 0c0 .5-.2 1-.4 1-.3 0-.8-.5-1.1-1-.3-.6-.1-1 .4-1 .6 0 1.1.4 1.1 1zm-8.4 4.2c-.1 1.3-.7 2.2-1.4 2.1-.7-.2-1.2.6-1.2 1.7s.5 1.9 1.2 1.7c2-.4 1.7 4.3-.3 5.4-1.3.6-1.9.6-1.9-.1 0-.5.6-1 1.3-1 .7 0 1.3-.9 1.4-2 .1-1.1-.4-1.9-1-1.7-.7.1-1.2-.9-1.2-2.3s.5-2.4 1.2-2.3c.6.2 1.1-.6 1-1.7-.1-1.1-.7-2-1.4-2s-1.3-.5-1.3-1c0-.7.6-.7 1.9-.1 1 .6 1.8 2 1.7 3.3zm-12.1-.6c-1.2 1.9-1.4 2.9-.6 3.7 1.4 1.4 1.4 2.7 0 2.7-.5 0-.8-.4-.4-.9.3-.5-.6-1.9-2.1-3-2.7-2.1-2.5-4.2.4-4 1.4 0 1.4.2-.2.8-1.6.6-1.7.9-.6 1.6.9.6 1.8.1 2.8-1.3.8-1.2 1.7-2.2 1.9-2.2.3 0-.2 1.2-1.2 2.6zM305 458c0 .5-.5 1-1.1 1-.5 0-.7-.5-.4-1 .3-.6.8-1 1.1-1 .2 0 .4.4.4 1zm17-.4c0 .8-1.9 1.3-2.4.6-.3-.5.1-.9.9-.9s1.5.2 1.5.3zm7 .6c0 .4-.4.8-.9.8-.6 0-1.2-.4-1.5-.8-.3-.5.1-.9.9-.9s1.5.4 1.5.9zm22-.8c0 .3-.4.8-1 1.1-.5.3-1 .1-1-.4 0-.6.5-1.1 1-1.1.6 0 1 .2 1 .4zm-44 2.1c0 .8-.4 1.5-1 1.5-.5 0-.7-.7-.4-1.5.4-.8.8-1.5 1-1.5.2 0 .4.7.4 1.5zm30.1.2c1.3 1.6 1.2 1.7-.3.4-1-.7-1.8-1.5-1.8-1.7 0-.8.8-.3 2.1 1.3zm-49 2c-1.2 2-1.4 1.4-.5-1.2.4-.9.9-1.4 1.1-1.1.3.2 0 1.3-.6 2.3zm6.9-1.7c0 .5-.4 1-1 1-.5 0-1-.5-1-1 0-.6.5-1 1-1 .6 0 1 .4 1 1zm17.3.7c-.3.7-.6 1.3-.8 1.3-.2 0-.5-.6-.8-1.3-.3-.8.1-1.4.8-1.4.7 0 1.1.6.8 1.4zm13.8 0c1.3 1.7 1.3 1.7-.6.3-1.1-.8-2.2-1.6-2.4-1.7-.2-.2 0-.3.6-.3s1.7.8 2.4 1.7zm-42.1 4.5c0 .5-.7.2-1.6-.6-1.7-1.8-3.9-2.2-2.9-.6.3.5.1 1-.4 1-1.3 0-1.3-.3-.5-2.4.5-1.4.8-1.4 3 .1 1.3.8 2.4 2 2.4 2.5zm6.7-1.2c0 1.6-.4 2.7-.9 2.4-1-.6-1.1-3.8-.1-4.7.9-1 1-1 1 2.3zm10 .1c0 2.1-.3 2.6-.9 1.6-.4-.9-.5-2.2-.2-3.1.9-2.3 1.1-2 1.1 1.5zm-8 1.1c-.3.7-.5.2-.5-1.2s.2-1.9.5-1.3c.2.7.2 1.9 0 2.5zm15.3-1.8c-.1.5.4 1.3 1.2 1.8 1.1.8 1.1.9 0 .6-.8-.2-1.3-.7-1.2-1.2.1-.5-.4-1.3-1.2-1.8-1.1-.8-1.1-.9 0-.6.8.2 1.3.7 1.2 1.2zm12.4-.5c.3.5 1.9.7 3.6.6 1.8-.2 3.5.4 4.2 1.4 1.1 1.4 1.1 1.4-.2.5-.8-.6-3.2-1-5.2-.9-2 .1-3.5-.2-3.2-.6.2-.4-.2-1-.8-1.2-.9-.4-1-.6-.1-.6.6-.1 1.4.3 1.7.8zm-15.4.5c0 .2-.7.6-1.5 1-.8.3-1.5.1-1.5-.4 0-.6.7-1 1.5-1s1.5.2 1.5.4zm1.5 2.6c.3.6-.1.7-.9.4-1.8-.7-2.1-1.4-.7-1.4.6 0 1.3.4 1.6 1zm10.1 1.3c.1.9-.2 1.7-.8 1.7-.6 0-.8-.6-.5-1.4.3-.8.2-1.7-.4-2-.5-.2-.4-.3.2-.2.7.1 1.3 1 1.5 1.9zm6.2 1.2c-.3.3-.9-.2-1.2-1.2-.6-1.4-.5-1.5.5-.6.7.7 1 1.5.7 1.8zm-33.8-.7c0 .4-.9 1.3-2 2-2.3 1.4-2.6.8-.7-1.3 1.3-1.6 2.7-1.9 2.7-.7zm6 .2c0 .5-.4 1-1 1-.5 0-1-.5-1-1 0-.6.5-1 1-1 .6 0 1 .4 1 1zm9.7-.4c-.3.3-1.2.4-1.9.1-.8-.3-.5-.6.6-.6 1.1-.1 1.7.2 1.3.5zm5.3.4c-.8.5-1.9 1-2.5 1-.5 0-.3-.5.5-1s2-1 2.5-1c.6 0 .3.5-.5 1zm25 0c0 .5-.2 1-.4 1-.3 0-.8-.5-1.1-1-.3-.6-.1-1 .4-1 .6 0 1.1.4 1.1 1zm-28.7 3.1c-.5.5-2.9 1.1-5.3 1.4-2.3.2-4 .2-3.7-.2.6-.5 2.3-.8 7.5-1.2.7-.1 1-.6.6-1.3-.5-.7-.3-.8.5-.3.8.4.9 1.1.4 1.6zm4.2-1.1c-.6.9.8 1.5 2.9 1.1.5-.1.4.4-.2 1.2-.7.8-.9 1.7-.5 2 .3.4.1.7-.6.7s-1.1-.6-.8-1.4c.3-.8-.1-1.7-.9-2-1.3-.5-1.1-2.6.2-2.6.3 0 .2.4-.1 1zm12.2 1.3c0 .8-1.2 1.3-2.8 1.3-1.5 0-2.6-.3-2.3-.7.2-.5 1.1-.6 1.8-.3.8.3 1.7.1 2.1-.5.8-1.4 1.2-1.4 1.2.2zm-34.7 4.4c-.9 1.5-1 1.4-.4-.7.6-2.2.5-2.3-1-1.1-1.9 1.6-2.2.6-.3-1.3 1.7-2 3.2.8 1.7 3.1zm9-.7c0 .5-.5 1-1.1 1-.5 0-.7-.5-.4-1 .3-.6.8-1 1.1-1 .2 0 .4.4.4 1zm3.4.5c.3.8.1 1.5-.4 1.5-.6 0-1-.7-1-1.5s.2-1.5.4-1.5.6.7 1 1.5zm4.6.6c0 .6-.4.7-1 .4-.5-.3-1-1.1-1-1.6 0-.6.5-.7 1-.4.6.3 1 1.1 1 1.6zm-19.4 5c-.9 1.3-1.6 1.7-1.6 1 0-1.1-.3-1.1-1.5-.1-1 .9-1.5.9-1.5.1 0-.6.5-1.1 1-1.1.6 0 1-.8 1.1-1.8 0-1.5.1-1.5.8.2.5 1.3 1 1.6 1.4.9.4-.6 0-1.8-.8-2.6-.8-.9-1.5-1.9-1.5-2.4 0-.4 1 .2 2.1 1.4 2 2 2.1 2.2.5 4.4zm13.2-2c.2.8 0 1-.5.4-1.2-1.5-4.7-1.9-3.7-.4.4.8.3 1-.5.5-.6-.4-.9-1.2-.6-1.7.9-1.3 4.8-.4 5.3 1.2zM202 3.9c-.8.6-1.8.7-2.2.5-.4-.3-.8 0-.8.5 0 .6.3 1.1.8 1.1 1.2-.1 5.8-2.9 4.7-2.9-.5-.1-1.7.3-2.5.8z"/><path d="M245.4 4.9c-.4.9-.6 2-.5 2.6.2.5.4 1.4.5 2 .1.5.5 1.5.9 2.1.3.6.3 1.4-.1 1.8-.4.4-.7 1.3-.7 1.9 0 .7-.7 1.2-1.6 1.1-.9-.1-1.5.7-1.5 2.1 0 1.6.6 2.2 2 2.1 2.1-.1 2.6 1.5 2.8 10.1l.2 4.1 4.1-.1c2.2 0 4.7.3 5.4.8 1 .5 1.2.4.7-.3-.8-1.3.6-1.6 1.8-.5 1 1 6.6 1.1 6 .1-.5-.8.2-1 4.8-1.2 1.4 0 2.9-.4 3.3-.8.4-.4 1.3-.4 1.9-.2 1.6.6 4-2.2 3.1-3.6-.9-1.5-2.5-1.2-1.9.4.3.8.1 1.7-.5 2-.5.4-1-.2-1-1.1-.1-1-.3-4.3-.4-7.3-.3-3.2.1-6.1.8-7 .6-.8 1.2-2.4 1.3-3.6 0-1.6-.5-2.1-2.1-2-1.2.1-2.7-.2-3.4-.7-.7-.5-2-.4-3.2.3-1.6.8-2.1.8-2.1-.1s-.3-.9-1.4 0c-1.1.9-2.1.6-4.5-1.5-1.7-1.4-3.1-3.2-3.1-4 0-.8-.4-1.4-1-1.4-1.4 0-1.3 1.3.3 2.9 1 1.1.9 1.2-.1.6-1.1-.6-1.2-.3-.3 1.4 1.4 2.5 2.2 2.8 1.5.3-.4-1.3-.2-1.3.8.3 1.3 1.9 2.6 2.6 5.8 2.9.8 0 1.8.5 2.2 1.1.5.6.8.5.8-.4 0-1.1.3-1.1 1.7 0 1.5 1.2 1.6 1.2.9-.5-.7-1.9-.6-1.9 1.4-.1 1.4 1.3 2 1.4 2 .5 0-.9.5-.7 1.4.5 1.2 1.7 1.2 2.1-.4 3.2-1.2.8-1.6 2.2-1.4 4.2.3 2.2-.1 3.1-1.4 3.3-1.1.2-1.7 1.4-1.8 3.6-.1 2 .3 3.1 1 2.9.6-.2 1-1.6 1-3-.1-1.5.2-2.7.7-2.7.4 0 .7.8.7 1.7 0 1 .2 2.5.6 3.4.4 1 0 2.1-1.1 2.9-1.5 1.2-1.6 1.2-.5 0 2-2.3 1.4-3.5-.8-1.5-1.5 1.4-2 1.5-2 .4-.1-1-.4-.9-1.4.4-1.2 1.5-1.4 1.6-2 .2-.3-.8-.3-2.2 0-3 .4-1.1.2-1.3-.9-.9-1.5.5-1.6 3.2-.1 5.6.4.7.3.8-.4.4s-1.2-.2-1.2.5c0 .8-.3.9-1.3 0-.8-.6-1.7-.7-2.1-.3-.4.4-.7.2-.6-.3.5-2.4-.1-2.7-1.5-.9-1.3 1.6-1.4 1.6-.9.1.3-.9.1-1.7-.5-1.7s-1.1.6-1.1 1.4c0 .8-.8 1.4-1.9 1.3-1.2-.1-1.7-.7-1.4-1.7.4-1.3.3-1.3-.6 0-.5.8-1.3 1.1-1.8.7-.9-.9 1.7-2.8 2.9-2.1.4.3.8 0 .8-.5 0-.6-.4-1.1-1-1.1-.5 0-.9-1-.7-2.3.2-1.8-.2-2.2-2.3-1.9-1.8.1-2.1-.1-1.1-.7 1.1-.7 1.1-1 0-1.5-.8-.3-.3-.3 1.1 0 1.4.4 2.2.3 1.8-.1-.4-.4-.2-1.7.4-2.9 1.1-2 1-2-.9-.4-1.1 1-2.4 1.8-2.9 1.8s-.2-.5.6-1c1.1-.8.8-.9-1.2-.6-1.5.3-3 .1-3.3-.4-.3-.5.4-.7 1.5-.5 1.3.2 2-.1 1.8-.8-.2-.7.2-1.3.7-1.4.6 0 .9.4.7 1-.2.8.2.7 1-.1 1.1-1.1 1-1.6-.6-2.8-1.1-.8-1.4-1.4-.8-1.4.7 0 1.2-.5 1.2-1.1 0-.5-.5-.7-1.2-.3-.7.5-.8.3-.3-.6.5-.8.4-1.1-.2-.7-.5.3-.9-.7-.9-2.3 0-1.6.4-2.8.9-2.7.5.1 1.1-.3 1.4-.9.6-1.7-2.5-1.2-3.3.5zm5.6 21c0 .6-.5 1.3-1 1.6-.6.4-.8 1-.5 1.5.3.5.1 1.1-.3 1.4-.7.4-.9-3.6-.3-5.2.3-.7 2.1-.1 2.1.7z"/><path d="M248.7 5.7c-1.8 2.3-1.8 2.5-.1 4.4.9 1 1.4 2.2 1.1 2.6-.4.3-.2 1.2.4 2 .9 1 .8 1.8-.2 3-1.1 1.5-1.1 1.6.1.5 2-1.7 2.9-1.5 2.7.8-.1 1.1-.4 2-.8 2-.9 0-.6 2 .4 3.7.5.7.6 1.7.2 2.2-.3.5-.1 1.3.5 1.6.6.4.8 1.6.5 2.8-.5 1.9-.5 2 .5.4.6-.9.8-2.3.4-3-.4-.6.3-.3 1.5.7 2.2 2 2.2 2 1.5 0-.4-1-1.2-2.2-1.8-2.6-.6-.4-1.2-1.2-1.2-1.8-.1-.5-.3-1.1-.4-1.3-.1-.1-.4-1.2-.5-2.5-.2-1.8 0-2 1.1-1.1 1.6 1.3 1.9-.2.3-1.8-.7-.7-.5-1.5.6-2.7.9-.9 1.2-1.6.6-1.6-.5 0-1.4.7-1.9 1.6-.6 1.1-1.1 1.3-1.6.5-.4-.6-.3-1.1.3-1.1 1 0 .8-4-.3-5.8-.5-.8-.2-1 .8-.6.9.3 1.4 1 1.1 1.4-.3.5.5 1.8 1.7 2.9 2.4 2.3 4.7 2.9 2.9.8-.8-1-.7-1.4.4-1.4.7 0 1.3.5 1.2 1-.1.5.4 1.2 1.2 1.5.9.3 1.1 0 .6-.8-.6-.9-.3-.9 1.4 0 1.2.6 1.9 1.5 1.6 2.1-.4.5-.1.9.4.9.6 0 1.1-.4 1.1-.9s1.2-.9 2.6-.9c1.7 0 2.2.3 1.3.9-.7.4-1.8.5-2.4.3-.5-.3-.3 0 .6.8.9.7 1.4 1.8 1.2 2.5-.2.6 0 1.4.6 1.7.5.3.8-.5.7-1.9-.2-1.4.3-3 1-3.6 2.3-1.9 1.6-2.6-2.3-2.4-2.1 0-4.9-.3-6.3-.8-1.4-.5-3.4-1.1-4.4-1.3-3.3-.6-4.9-2.8-5.5-7.4-.2-1.6-3.8-.5-5.4 1.7zm4.3.3c.8 1.6.8 1.8-.4 1.4-1-.4-1.4.1-1.3 1.5.1 1.2.5 2.1 1 2.1s.4.6-.2 1.3c-.6.8-.7 1.8-.3 2.2.4.5.2.5-.4.2-.6-.4-1-1.8-.9-3.1.2-1.5-.3-2.7-1.2-3.1-1.4-.5-1.3-.8.2-2.5 2.2-2.4 2.2-2.4 3.5 0z"/><path d="M249.9 6.7c-1.3 1.6-1.2 1.7.4.4.9-.7 1.7-1.5 1.7-1.7 0-.8-.8-.3-2.1 1.3zM186 8.5c0 .9-.6 1.2-1.5.9-.8-.4-1.5-.2-1.5.4 0 1.7 3.5.6 3.8-1.1.2-1 .1-1.7-.2-1.7-.3 0-.6.7-.6 1.5zM190 8c0 .5.5 1 1.1 1 .5 0 .7-.5.4-1-.3-.6-.8-1-1.1-1-.2 0-.4.4-.4 1zM179.3 11.6c0 1.7.2 2.2.7 1.3.5-.6.6-1.8.3-2.6-.8-1.9-1-1.6-1 1.3zM187.6 10.5c-.3.9-.6 2.2-.5 2.8 0 .7.5.1 1-1.2s.8-2.6.5-2.8c-.2-.2-.6.3-1 1.2zM175.6 11.2c.5.8.1.9-1.2.4-1.4-.5-1.6-.4-.7.4.7.8 1.7.9 2.8.3 1.6-.9 1.6-1 .1-1.6-1.2-.5-1.5-.3-1 .5zM191 11c-1.3.8-1.2 1 .3 1 .9 0 1.7-.5 1.7-1 0-1.2-.1-1.2-2 0zM167 12.4c0 .2.9.6 2 .9 1.1.3 1.8.1 1.4-.4-.5-.9-3.4-1.3-3.4-.5zM181.5 12.9c-.7 1.2 1.2 2.4 2.5 1.6.6-.3 1-1.2.9-1.8 0-.9-.2-.9-.6 0-.2.7-.9 1.3-1.4 1.3-.6 0-.7-.5-.4-1 .3-.6.4-1 .1-1-.3 0-.7.4-1.1.9zM190.6 15.5c.9 1.4 1.9 2.4 2.1 2.1.6-.6-2-4.6-3-4.6-.4 0 0 1.1.9 2.5zM163.8 16.8c-.3 1.1 0 1.9.7 1.9s1-.8.7-1.9c-.2-1-.6-1.8-.7-1.8-.1 0-.5.8-.7 1.8zM171 16.1c0 .5.5.7 1 .4.6-.3 1-.8 1-1.1 0-.2-.4-.4-1-.4-.5 0-1 .5-1 1.1zM174.4 16.5c-1.8 1.4-1.8 1.4.4.8 1.2-.3 2.2-.9 2.2-1.4 0-1.2-.3-1.1-2.6.6zM178.5 17.2l-2 2.1 2.3-1.2c1.2-.6 2.2-1.6 2.2-2.1 0-1.3-.2-1.2-2.5 1.2zM183.4 16.8c-2.5 2.1-2.6 5.4-.1 5.8.9.1 1.5-.1 1.2-.6-.3-.4.2-1.1 1.1-1.4.8-.3 1.2-1 .9-1.6-.3-.6.4-1 1.6-1h2.2l-2.1 2.3c-1.2 1.3-2.2 2.7-2.2 3.2s.7 0 1.5-1.2c1.1-1.5 2.3-2 4.7-1.7 2.2.3 2.8.1 1.9-.5-.8-.5-2-.7-2.8-.4-.8.3-1.3 0-1.1-.8.2-.9-.6-1.4-2.2-1.4-1.4 0-2.4.5-2.3 1.1.1.5-.7 1.6-1.8 2.2-1.7 1.1-2 1-1.7-.5.2-1 1.4-2.6 2.8-3.5 1.4-1 2.1-1.8 1.5-1.8-.5 0-1.9.8-3.1 1.8zM198.7 18c-1.5 1.6-2.3 3-1.8 3 .5 0 1.6-1.1 2.5-2.5 1.1-1.6 2.2-2.2 3.3-1.8 1.1.4 1.4.3.9-.5-1.1-1.8-2-1.5-4.9 1.8zM256.1 16.3c-.7.7-.7 1.5 0 2.3 1.2 1.5.3 3.7-1.2 2.9-.5-.3-.6.1-.3 1 .5 1.2.9 1.3 2 .4 1.2-1 1.3-.9.8.5-.3.9-1 1.6-1.5 1.6s-.2.8.7 1.7c.8 1 2.3 2.9 3.4 4.3 1 1.4 2.2 2.2 2.6 1.7.4-.4-.2-1.4-1.4-2.2-1.2-.9-1.9-2.3-1.7-3.5.2-1.1 0-2-.4-2s-.8-1.4-.8-3c0-1.7.4-3 .9-3s.7-.4.4-.8c-.3-.5.1-.9.9-.9s1.5.4 1.5.9.5.6 1 .3c.6-.3 2.2.3 3.6 1.4 1.5 1.2 2.2 2.1 1.7 2.1-.5 0-1.5-.6-2.2-1.3-1.1-1-1.3-.9-.8.4.3.9 0 2.2-.6 2.8-.8.8-.8 1.1 0 1.1.7 0 1.5-.5 1.8-1 .4-.6 1-.8 1.5-.5 1.4.9 2.1-1.2 1.1-3.7-.4-1.3-1.7-2.3-2.7-2.3-1.1 0-1.8-.6-1.6-1.3.1-.6-.2-1.2-.8-1.2-.5 0-1 .5-1 1.1 0 .5-.6.7-1.2.3-1.9-1.2-4.6-1.2-5.7-.1zm1.6 1.2c0 .8-.4 1.2-.9.9-.5-.3-.6-1-.3-1.5.9-1.3 1.2-1.1 1.2.6zM275.3 18.9c.1 2.2 1.2 2.8 2.1 1.2.3-.5-.1-1.4-.9-2.1-1.1-.9-1.4-.8-1.2.9zM172.2 19.6c1 1 2 1.6 2.2 1.3.3-.3-.5-1.1-1.7-1.8-2.1-1.3-2.1-1.2-.5.5zM194.8 18.7c.7.3 1.6.2 1.9-.1.4-.3-.2-.6-1.3-.5-1.1 0-1.4.3-.6.6zM151.9 19.2c-.6 2-.6 3.9 0 4.2.4.3.7-.6.7-2 0-2-.4-3.2-.7-2.2zM155.1 19.3c.2.2 1.1.8 2 1.5 1.2.9 1.6.9 1.6-.1 0-.7-.9-1.4-2-1.4-1.1-.1-1.8-.1-1.6 0zM168 20.9c-.7 1.5-.7 1.9.5 1.7.8-.1 1.8-.6 2.2-1.1.5-.4.2-.5-.6 0-1.1.6-1.3.4-.8-.8.9-2.3 0-2.1-1.3.2zM178.4 20.5c-.4.8-.9 1.3-1.3 1.1-.4-.3-1.3-.1-2.1.4-1.1.7-.9.9.8.7 2-.1 5.5-3.7 3.7-3.7-.3 0-.8.7-1.1 1.5z"/><path d="M259.5 19.9c-.3.5-.1 1.2.5 1.6.5.3 1 1.1 1 1.6 0 .6-.5.7-1.2.3-.7-.5-.8-.3-.2.7.5.8.9 2.3.9 3.3 0 1.1.7 2.1 1.5 2.3 1.2.4 1.3.3.1-.5-1.1-.8-.9-1.1.9-1.7 1.6-.5 1.9-.9 1-1.5-.8-.5-.9-1.3-.4-2.1.9-1.5 1.3-4.9.6-4.9-.3 0-1.1.8-1.8 1.7-1.3 1.7-1.4 1.7-.8 0 .6-1.8-1-2.4-2.1-.8zm4.5 2.5c0 .2-.8 1-1.7 1.7-1.6 1.3-1.7 1.2-.4-.4 1.3-1.6 2.1-2.1 2.1-1.3zM154.9 22.2c1.1 1.5 1.1 2.1 0 3.5-1.2 1.7-1.2 1.7.6 0 1.9-1.7 1.9-1.7 0-3.5-1.8-1.6-1.8-1.6-.6 0zM171.9 22.2c-.5 1.8-.6 3.8-.1 3.4.7-.8 1.2-3.6.6-3.6-.2 0-.4.1-.5.2zM188.7 23.4c-.7 1.7 3.8 5.4 5 4.2.3-.3.1-.6-.6-.6s-.9-.4-.6-1c.4-.6-.1-.7-1.1-.3-1 .4-1.5.2-1.1-.3.3-.6.2-1.6-.2-2.3-.6-1-1-.9-1.4.3zM191.5 23c.3.5.8 1 1.1 1 .2 0 .4-.5.4-1 0-.6-.5-1-1.1-1-.5 0-.7.4-.4 1zM194.3 23.5c-.3.9-.3 1.9.1 2.2.3.4.6-.1.6-1 0-.8.6-1.8 1.3-2 .9-.4.9-.6-.1-.6-.7-.1-1.5.6-1.9 1.4zM144.6 24.2c.3.5 1 .6 1.5.3 1.3-.9 1.1-1.2-.6-1.2-.8 0-1.2.4-.9.9zM166.7 25.4c-.4 1 .1 1.2 1.4.9 2.3-.6 2.4-.9.5-1.6-.8-.3-1.7 0-1.9.7zM177.6 25.2c.5.7 0 .9-1.4.6-1.5-.4-1.9-.2-1.5.8.4 1 1 1.1 2.4.3 1.7-.8 1.8-2.9.3-2.9-.3 0-.2.5.2 1.2zM182 24.9c0 .7-.5.9-1.2.5-.7-.5-.8-.3-.3.5.5.9 1 1 1.8.2.6-.6.8-1.4.4-1.8-.4-.3-.7-.1-.7.6zM266.9 24.2c-.1.2-.2 1.7-.4 3.5-.2 2.5 0 2.9 1 2 .8-.8 1-1.6.4-2.4-.7-.7-.5-1.3.3-1.5.9-.3.9-.6 0-1.2-.7-.4-1.2-.6-1.3-.4zM185.4 26.4c-.8 2 .3 4.9 1.4 4.2.5-.3 1.4.6 2.1 2 .9 2.1 1.4 2.4 2.5 1.5 1.1-.9 1.5-.9 1.9.1.2.7.7 1.1 1 .8.3-.3-.3-1.6-1.5-3-1.2-1.6-1.8-1.9-1.4-.8.9 2.8-1 3-2.3.2-.6-1.4-1.6-2.2-2.1-1.9-.6.3-1-.4-1-1.6 0-2.1.1-2.2 2-.4 1.1 1 2.2 1.6 2.4 1.4.2-.2-.7-1.2-2-2.2-2.1-1.6-2.5-1.6-3-.3zM156.4 28.2c-1.2 1.4-1.3 1.8-.3 1 .9-.6 1.8-1 2.1-.7.2.3.5-.2.5-1 0-1.9 0-1.9-2.3.7zM141.6 27.8c-.3.5.1.9.9.9s1.2-.4.9-.9c-.3-.4-.7-.8-.9-.8-.2 0-.6.4-.9.8zM147.6 28.7c-.6 1.4-.5 1.5.5.6.7-.7 1-1.5.7-1.8-.3-.3-.9.2-1.2 1.2zM172.2 28.2c-1.5 1.5-1.5 2.8 0 2.8.6 0 .8-.3.5-.7-.4-.3-.2-1.2.4-2 1.4-1.6.7-1.7-.9-.1zM178.1 28c-.9.5-.4.7 1.3.7 2.9 0 3.2-.2 1.3-1-.8-.3-2-.2-2.6.3zM195.6 28.5c.4.8.8 1.5 1 1.5.2 0 .4-.7.4-1.5s-.4-1.5-1-1.5c-.5 0-.7.7-.4 1.5zM151 30.2c0 .4.4.8.9.8.6 0 1.2-.4 1.5-.8.3-.5-.1-.9-.9-.9s-1.5.4-1.5.9zM183 29.6c0 1.3 1.8 3.9 2.4 3.4.2-.3-.2-1.4-1-2.4-.8-1.1-1.4-1.6-1.4-1zM194.2 31c1.2 1.9 2.8 2.7 2.8 1.4 0-.7-2.7-3.4-3.4-3.4-.4 0-.1.9.6 2zM157.5 31c-.4.6-1.1.8-1.6.5-.5-.4-.9-.1-.9.4 0 1.6 1.6 1.3 3-.4.7-.8 1-1.5.7-1.5-.3 0-.9.5-1.2 1zM175.2 30.7c-.6.2-1 .9-.6 1.4.8 1.4 2.1 1.1 2.1-.6 0-.8-.1-1.5-.1-1.4-.1 0-.7.3-1.4.6zM180.6 32.1c1.9 2.2 1.9 2.2-.3 1.7-1.6-.4-2.6.1-3.8 1.8-.8 1.3-1.5 2.7-1.5 3.1 0 .4.8-.4 1.8-2 1-1.5 2.1-2.4 2.5-2.1.3.4 1.3.4 2.1.1 1.9-.7 1.1-3.3-1.2-4.2-1.3-.5-1.2-.1.4 1.6zM127 32.1c0 .5.5.7 1 .4.6-.3 1-.8 1-1.1 0-.2-.4-.4-1-.4-.5 0-1 .5-1 1.1zM163.9 31.7c-.5 3.8-.5 6.4 0 6.7.3.2.7-1.3.7-3.5.1-2.1-.1-3.9-.2-3.9-.2 0-.4.3-.5.7zM187 33.7c0 .6.8 1.7 1.8 2.4 1.6 1.3 1.6 1.3.2-.6-.8-1.1-1.6-2.2-1.7-2.4-.2-.2-.3 0-.3.6zM171.6 35.4c1 .8 2.1 1.2 2.4 1 .5-.6-2.1-2.4-3.4-2.4-.6 0-.1.6 1 1.4zM129.9 35.2c-.5 1.8-.6 3.8-.1 3.4.7-.8 1.2-3.6.6-3.6-.2 0-.4.1-.5.2zM138 35.4c0 .2.8 1 1.8 1.7 1.5 1.3 1.6 1.2.3-.4s-2.1-2.1-2.1-1.3zM184.3 35.8c1 .4 1.7 1.2 1.5 1.7-.2.6.7 1.1 2 1.3 1.2.2 2 .8 1.7 1.3-.4.5-.1.9.5.9 2 0 .5-2.4-1.9-3-1.2-.3-2.2-1-2.1-1.5.1-.6-.7-1.1-1.7-1.2-1.7-.3-1.7-.2 0 .5zM191 36.9c0 .6.5 1.3 1.2 1.7.6.4.8.3.4-.4-.3-.5 0-1.3.6-1.5.8-.3.6-.6-.4-.6-1-.1-1.8.3-1.8.8zM198 37.5c-.7.9-1 1.8-.7 2.2.4.3 1-.2 1.3-1.1.5-1.4.9-1.5 1.5-.4.6.9.9.9.9.1 0-1.9-1.7-2.4-3-.8zM133.5 38c.3.5.8 1 1.1 1 .2 0 .4-.5.4-1 0-.6-.5-1-1.1-1-.5 0-.7.4-.4 1zM170.5 40c0 1.5.3 2.6.8 2.3.4-.2.7-1.3.7-2.3 0-1-.3-2.1-.7-2.3-.5-.3-.8.8-.8 2.3z"/><path d="M177.4 38.5c-.3.8-.4 2-.2 2.7.3.7.7.1 1-1.5.6-2.9.1-3.6-.8-1.2zM181.9 37.2c-.6 2.2-.5 3.8.3 3.8.6 0 .8-.6.5-1.4-.3-.8-.1-1.7.6-2 .9-.3.9-.5 0-.5-.7-.1-1.3 0-1.4.1zM145.3 40.7c0 .9.4 1 1.4.2.7-.6 1.3-1.2 1.3-1.4 0-.1-.6-.2-1.3-.2-.8 0-1.4.6-1.4 1.4zM152.4 40.1c-.4.7 7.4.4 8.1-.3.3-.3-1.3-.5-3.6-.4-2.2.1-4.3.4-4.5.7zM133 42c0 .5.5 1 1.1 1 .5 0 .7-.5.4-1-.3-.6-.8-1-1.1-1-.2 0-.4.4-.4 1zM175 41.9c0 .6.4 1.3 1 1.6.6.3.7-.1.4-.9-.7-1.8-1.4-2.1-1.4-.7zM179.3 42.9c0 1.1.5 1.8.9 1.5.4-.3.5-1.1.1-1.9-.7-2.1-1.2-1.9-1 .4zM183.1 41.9c-1 .7-.7.9 1.2.8 1.4-.1 2.3-.5 2-1-.6-.9-1.5-.9-3.2.2zM153.4 43.1c-.3.6-.2 1.5.3 2s.9.1.9-1.1c0-2.3-.2-2.4-1.2-.9zM156.9 43.7c-1.3 1.6-1.2 1.7.4.4.9-.7 1.7-1.5 1.7-1.7 0-.8-.8-.3-2.1 1.3zM146.6 44.2c.3.5 1 .6 1.5.3 1.3-.9 1.1-1.2-.6-1.2-.8 0-1.2.4-.9.9zM162.1 44.6c0 1.1.3 1.4.6.6.3-.7.2-1.6-.1-1.9-.3-.4-.6.2-.5 1.3zM167.6 43.8c-.3.4.4.9 1.5.9 2.3.2 2.5-.3.4-1-.8-.4-1.6-.3-1.9.1zM158.9 45.7c-1.3 1.6-1.2 1.7.4.4 1.6-1.3 2.1-2.1 1.3-2.1-.2 0-1 .8-1.7 1.7zM172 44.4c0 .2.7.7 1.6 1 .8.3 1.2.2.9-.4-.6-1-2.5-1.4-2.5-.6zM133.5 46c-.3.5-.1 1 .4 1 .6 0 1.1-.5 1.1-1 0-.6-.2-1-.4-1-.3 0-.8.4-1.1 1zM148 46c-.9.6-1 1-.3 1 .6 0 1.5-.5 1.8-1 .8-1.2.4-1.2-1.5 0zM151.6 47.3c.3 1 .9 1.5 1.2 1.2.3-.3 0-1.1-.7-1.8-1-.9-1.1-.8-.5.6zM164.1 48.2c-1.3 2.2-1.3 2.2.4.8 1-.8 2.1-1.4 2.4-1.3.3.1.8-.1 1.1-.4.3-.4 0-.3-.7 0-.6.4-1.3.3-1.5-.3-.2-.6-.9 0-1.7 1.2zM122.7 48.1c.7.7 1.5 1 1.8.7.3-.3-.2-.9-1.2-1.2-1.4-.6-1.5-.5-.6.5zM129.9 47.2c-.5 1.8-.6 3.8-.1 3.4.7-.8 1.2-3.6.6-3.6-.2 0-.4.1-.5.2zM144.7 48.1c.7.7 1.5 1 1.8.7.3-.3-.2-.9-1.2-1.2-1.4-.6-1.5-.5-.6.5zM146.6 51.9c-.3.4.6.7 1.9.7 1.4 0 2.2-.2 1.9-.5-.8-.8-3.4-1-3.8-.2zM151.5 53.9c-.3.5-.2 1.2.3 1.5.5.3.9-.1.9-.9 0-1.7-.3-1.9-1.2-.6zM125.5 57.9c-.3.5-.2 1.2.3 1.5.5.3.9-.1.9-.9 0-1.7-.3-1.9-1.2-.6zM139.6 59.3c.3 1 .9 1.5 1.2 1.2.3-.3 0-1.1-.7-1.8-1-.9-1.1-.8-.5.6zM129.4 60.4c.1.8.5 1.8.8 2.2.4.3.5-.1.4-1-.1-.8-.5-1.8-.8-2.2-.4-.3-.5.1-.4 1zM125.3 64.9c0 1.1.5 1.8.9 1.5.4-.3.5-1.1.1-1.9-.7-2.1-1.2-1.9-1 .4zM129.3 66.5c0 .8.4 1.2.9.9.5-.3.6-1 .3-1.5-.9-1.3-1.2-1.1-1.2.6zM155.8 147.1c-1 .5-1.8 2.1-1.8 3.5 0 2 6.5 17.3 19.3 45.4 2.3 5 6.6 14.7 27.4 61 3.6 8 7.9 17.4 9.5 21 1.6 3.6 4 9 5.3 12 1.3 3 4.2 9.5 6.4 14.3 2.3 4.9 4.1 9 4.1 9.2 0 .2 1.9 4.5 4.3 9.7 2.4 5.1 4.9 10.8 5.7 12.6 1.5 3.8 3.6 5.2 7.8 5.2 3.9 0 5.2-1.7 10.7-14 2.6-5.8 5.8-13 7.2-16 1.4-3 4.5-10 7-15.5 5.2-11.6 5.8-12.8 15.3-34 4-8.8 9-19.8 11.1-24.3 2.2-4.6 3.9-8.5 3.9-8.7 0-.2 1.3-3.2 2.9-6.7 1.6-3.5 5.2-11.5 8.1-17.8 2.9-6.3 6.3-14 7.7-17 1.4-3 4.5-10 7-15.5s5.4-11.9 6.4-14.2c2.4-5.4 2.4-8.9 0-10.3-2.8-1.4-15.4-1.3-17.2.2-.9.7-4.9 8.7-8.9 17.8-4 9.1-8.6 19.4-10.3 23-1.6 3.6-6 13.5-9.7 22-3.8 8.5-8 18.2-9.5 21.5-4.9 10.8-6.7 15-8 18-.8 1.6-3.2 7-5.4 11.8-2.3 4.9-4.1 9.1-4.1 9.3 0 .2-1.1 2.7-2.4 5.6-1.3 2.9-3.4 7.5-4.6 10.3-7.5 16.8-7.1 16.1-8.6 14-.8-1-1.4-2.2-1.4-2.7 0-.4-2-5.1-4.5-10.4-2.5-5.3-4.5-9.8-4.5-10 0-.2-1.3-3.2-2.9-6.6-1.6-3.5-14.4-32.4-28.6-64.3-14.1-31.9-26.4-58.6-27.3-59.3-1.9-1.5-14.9-1.6-17.4-.1zM107.4 416c0 1.3.4 1.6 1 1 .7-.7.7-1.3 0-2-.6-.6-1-.3-1 1zM123.3 426.5c0 .8.4 1.2.9.9.5-.3.6-1 .3-1.5-.9-1.3-1.2-1.1-1.2.6zM133 430c0 .5.5 1 1.1 1 .5 0 .7-.5.4-1-.3-.6-.8-1-1.1-1-.2 0-.4.4-.4 1zM145.3 432.5c0 .8.4 1.2.9.9.5-.3.6-1 .3-1.5-.9-1.3-1.2-1.1-1.2.6zM148.6 432.2c.3.4.9.8 1.5.8.5 0 .9-.4.9-.8 0-.5-.7-.9-1.5-.9s-1.2.4-.9.9zM155.7 436.8c-1.5 1.6-1.5 1.9-.2 1.9.8 0 1.3-.3 1-.5-.3-.3 0-1.1.6-1.9 1.7-2 .5-1.6-1.4.5zM133.5 438c.3.5.8 1 1.1 1 .2 0 .4-.5.4-1 0-.6-.5-1-1.1-1-.5 0-.7.4-.4 1zM147.3 438.5c0 .8.4 1.2.9.9.5-.3.6-1 .3-1.5-.9-1.3-1.2-1.1-1.2.6zM150.7 438.1c.7.7 1.5 1 1.8.7.3-.3-.2-.9-1.2-1.2-1.4-.6-1.5-.5-.6.5zM158.5 438c-.3.6.1.7.9.4 1.8-.7 2.1-1.4.7-1.4-.6 0-1.3.4-1.6 1zM160.9 439.7c-1.3 1.6-1.2 1.7.4.4 1.6-1.3 2.1-2.1 1.3-2.1-.2 0-1 .8-1.7 1.7zM169.3 440.5c0 .7.7 1.1 1.5.7 1.1-.4 1.3-.1.7.8-.5.9-.4 1.1.3.6 1.6-1 1.5-1.4-.6-2.5-1.4-.7-1.9-.6-1.9.4zM151.3 441.5c0 .8 1 2.3 2.1 3.2 2.1 1.8 2.1 1.8.4-.2-.9-1.1-1.7-2.4-1.6-2.8 0-.5-.2-1.1-.4-1.3-.3-.2-.5.3-.5 1.1zM133 442c0 .5.5 1 1.1 1 .5 0 .7-.5.4-1-.3-.6-.8-1-1.1-1-.2 0-.4.4-.4 1zM159.8 442.7c.7.3 1.6.2 1.9-.1.4-.3-.2-.6-1.3-.5-1.1 0-1.4.3-.6.6zM167 444c0 .5.5 1 1 1 .6 0 1-.5 1-1 0-.6-.4-1-1-1-.5 0-1 .4-1 1zM173 444c0 .5.5 1 1 1 .6 0 1-.5 1-1 0-.6-.4-1-1-1-.5 0-1 .4-1 1zM179.5 444c-.3.5-.1 1 .4 1 .6 0 1.1-.5 1.1-1 0-.6-.2-1-.4-1-.3 0-.8.4-1.1 1zM133.5 446c-.3.5-.1 1 .4 1 .6 0 1.1-.5 1.1-1 0-.6-.2-1-.4-1-.3 0-.8.4-1.1 1zM163 446.5c.5.7.6 1.5.2 2-.4.4.3.2 1.6-.4 2.6-1.4 3-2.3.5-1.4-1 .4-1.4.2-1-.4.3-.5 0-1-.8-1-1 0-1.2.4-.5 1.2zM171.5 446c.6 1 .4 1.2-.7.7-1.2-.4-1.4-.1-1.1 1.4.3 1.1.6 1.8.7 1.7.1-.2.7-1 1.4-2 1-1.2 1-1.8.1-2.4-.8-.5-.9-.3-.4.6zM181.4 446.1c-.2.4-.1 1.5.3 2.5s.2 1.5-.3 1.1c-.6-.3-1.6-.1-2.4.4-1.1.7-.8.8 1 .5 1.9-.3 2.4-.9 2.3-2.5-.2-1.2.1-2 .5-1.7.4.2 1.4.1 2.2-.4 1.1-.7.9-.9-.8-.7-1.3.1-2.5.4-2.8.8zM187.6 446.1c.3.5.9.7 1.4.4.5-.3.8.4.7 1.5-.1 1.1-1 2.3-2 2.6-1 .3-1.6.8-1.4 1.1.3.2 1.4 0 2.5-.6 2.4-1.3 2.4-5.3-.1-5.7-.9-.1-1.5.2-1.1.7zM157.6 447.3c.3 1 .9 1.5 1.2 1.2.3-.3 0-1.1-.7-1.8-1-.9-1.1-.8-.5.6zM192.6 447.6c-.4.9-.4 1.9-.1 2.2.3.3.5 0 .5-.7s.4-1 .8-.7c.5.3.9-.1.9-.9 0-2-1.3-1.9-2.1.1zM129.9 447.2c-.5 1.8-.6 3.8-.1 3.4.7-.8 1.2-3.6.6-3.6-.2 0-.4.1-.5.2zM151 447.9c0 .6.4 1.3 1 1.6.6.3.7-.1.4-.9-.7-1.8-1.4-2.1-1.4-.7zM176.5 448c.3.5 1.1 1 1.6 1 .6 0 .7-.5.4-1-.3-.6-1.1-1-1.6-1-.6 0-.7.4-.4 1z"/><path d="M185.5 448c.3.5 1.1 1 1.6 1 .6 0 .7-.5.4-1-.3-.6-1.1-1-1.6-1-.6 0-.7.4-.4 1zM196.5 448c-.3.5-.1 1 .4 1 .6 0 1.1-.5 1.1-1 0-.6-.2-1-.4-1-.3 0-.8.4-1.1 1zM143.5 448.9c-.3.5-.2 1.2.3 1.5.5.3.9-.1.9-.9 0-1.7-.3-1.9-1.2-.6zM154.9 449.7c-1.3 1.6-1.2 1.7.4.4 1.6-1.3 2.1-2.1 1.3-2.1-.2 0-1 .8-1.7 1.7zM197.1 452c-1.8 2.2-3 4.6-2.8 5.3.3.7.6.5.6-.5.1-.9.5-1.8.9-2 .9-.3 5.6-6.8 4.9-6.8-.2 0-1.8 1.8-3.6 4zM202 448.4c0 .2.7.7 1.6 1 .8.3 1.2.2.9-.4-.6-1-2.5-1.4-2.5-.6zM133 450c0 .5.5 1 1.1 1 .5 0 .7-.5.4-1-.3-.6-.8-1-1.1-1-.2 0-.4.4-.4 1zM137.5 450c.3.5.8 1 1.1 1 .2 0 .4-.5.4-1 0-.6-.5-1-1.1-1-.5 0-.7.4-.4 1zM175.3 450.5c0 .8.4 1.2.9.9.5-.3.6-1 .3-1.5-.9-1.3-1.2-1.1-1.2.6zM182.6 452.2c-.9 1.8-1.1 2.5-.3 1.6.8-1 1.6-1.6 1.8-1.3.3.2.5-.5.6-1.5.2-2.7 0-2.5-2.1 1.2z"/><path d="M203.6 452.2c-3.3 3.1-4.9 2.9-2.1-.2 1-1.1 1.4-2 .9-2-.9 0-5.4 6.4-5.4 7.7 0 .4.7-.2 1.6-1.3 1.3-1.5 1.5-1.6 1-.2-.3 1.2-.1 1.5.9 1.1.8-.3 1.2-.9.9-1.4-.3-.5 0-.9.5-.9.6 0 1.1.4 1.1.8 0 .5.6 1.6 1.3 2.6 1.2 1.6 1.3 1.6 1.3-.3 0-1.1-.3-1.8-.7-1.5-.9.5-2.1-2.7-1.4-3.5.3-.3 1.1.1 1.6.9.8 1.2.9 1.1.7-.5-.2-1.2.4-2.1 1.5-2.3.9-.2 1.7.2 1.7.8 0 .6-.4.9-.8.6-.4-.2-.9.5-.9 1.6-.2 2-.1 2 1.2.2s1.4-1.8 1.2.3c-.1 1.3-.7 2.3-1.4 2.3s-1.3.5-1.3 1.1c0 .5.4.8.9.4.5-.3 1.2-.1 1.6.5.4.6 1.1.7 1.7.4.7-.4.8-.2.4.5s-1.6.9-2.7.6c-1.6-.5-2-.3-1.7 1.1.2.9-.3 1.9-1 2.1-.6.3-1-.1-.9-.9.2-.7.2-1 0-.6-.7 1.3-2.4.9-2.2-.5.3-2.4-.1-3.7-1.2-3.7-.8 0-.8.5.1 1.5.8.9.9 1.5.2 1.5-.6 0-1.4-.5-1.7-1-.3-.6-1-1-1.5-1s.4 1.3 2 2.9c1.9 1.9 2.7 3.5 2.4 4.8-.5 1.7-.1 2 2.1 2 3.6.1 4.1.9 2 3.3-1.4 1.6-1.5 2.2-.5 3.5.7.8.8 1.5.2 1.5-2.3 0-3.2-2.6-1.6-4.8.9-1.3 1.1-2.2.5-2.2-.6 0-1.1.5-1.1 1.2 0 .9-.3.9-1.2 0-.7-.7-1.6-1.2-2.2-1.2-.5 0-.2.6.8 1.3 1.7 1.2 1.7 1.4-.3 3.7-1.1 1.4-2 2-2.1 1.3 0-.6.5-1.5 1-1.8.6-.3 1-1.2 1-1.8 0-.7-.8 0-1.8 1.5-.9 1.6-2 2.8-2.4 2.8-.5 0-.8.5-.8 1.1 0 .8.6.7 1.7-.2 1.5-1.2 1.6-1.2 1 .3-.3 1 .2 2.6 1.4 4l2 2.3-1.5-2.6c-1.4-2.3-1.4-2.7 0-4.7 1.3-1.8 1.9-2.1 3-1.1.8.6 1.4 1.6 1.4 2.1 0 .6-.6.6-1.4-.1-1.1-.9-1.5-.8-2 .6-.5 1.1.1 2.3 1.6 3.5 2.2 1.6 2.3 1.6 3.8-.8.8-1.3 1.8-2.4 2.2-2.4 1.2 0 .5 2.4-1.1 3.6-1.1.9-1.2 1.2-.1 1.9.9.6 1.1.4.5-.5-.6-1-.4-1.2.9-.7.9.4 1.5.3 1.2-.2-.3-.5.1-1.2 1-1.5 1.2-.5 1.4-.1.9 1.7-.5 1.7-.4 1.9.4.7s1.1-1.2 1.1-.1c0 1 .3 1.1 1.4.2.9-.7 1.7-.8 2-.2.3.5.1 1.2-.4 1.4-.6.3-.5.4.2.3.7-.2 1.2-1.2 1-2.2-.2-1.6 0-1.5 1.6.5 1.2 1.5 2.6 2.2 3.5 1.8.8-.3 1.8-.3 2.2.1.3.3 2.9.7 5.6.8 4.1.1 4.9-.2 4.4-1.5s-.4-1.3 1.2.1c1.4 1.1 3.8 1.5 10 1.4 4.5-.1 8.5-.5 8.9-.9 1.2-1.1 2.6-.8 1.8.5-.4.7-.3.8.5.4.7-.4 4.2-1 7.9-1.2 3.7-.2 7.9-.5 9.3-.6 2.1-.1 2.6-.7 2.6-3 0-1.5-.4-2.8-.9-2.8-.7 0-1.2 2.4-.9 4.3.1.5-.3.6-.9.2-1.8-1.1-.7-3.6 3.3-7.5 4.3-4.2 4.5-5.1 1.6-4.7-1.2.1-2.4-.5-2.6-1.3-.4-1.3-.3-1.3.6 0 .5.8 1.3 1.1 1.7.7.7-.7-1.3-3.7-2.6-3.7-1.8 0-1.7 4.1.1 5.3 1 .8 1.6 1.7 1.3 2-.4.3-1.5-.4-2.5-1.6-2.1-2.5-2.5-1.7-.6 1.3 1.5 2.6-.5 4.2-4.6 3.4-2.5-.4-2.6-.3-1.5 1.6.7 1.1 1.6 2 2.1 2 .4 0 .5-.5.2-1s-.2-1 .3-1c.6 0 .9 1.1.8 2.4 0 1.4-.6 2.2-1.3 1.9-.7-.3-1.3 0-1.3.7s-.9.2-2-1.1c-1-1.3-1.9-1.9-2-1.4 0 .6.5 1.6 1.2 2.3.9.9.9 1.2.1 1.2-.7 0-1.5-.9-1.8-2-.4-1.1-1-1.8-1.5-1.5-.5.3-.7 1.3-.4 2.3.5 1.3.4 1.4-.4.3-.8-1.1-1.1-1.1-1.6 0-.3.8-.4.5-.1-.7.4-1.4 0-2.1-1-2.1-1.1 0-1.4.7-.9 2.1.4 1.5.3 1.7-.4.8-1-1.5-1.8-1.5-4.4-.1-1.1.6-1.8.4-2.2-.6-.3-.8-1.1-1.5-1.8-1.4-1 0-1 .2 0 .6.6.2 1.2.9 1.2 1.5 0 .7-.5.6-1.4-.1-1-.8-1.6-.9-2.1-.1-.3.5-.1 1 .6 1s1 .3.6.6c-.3.3-1.4.1-2.4-.5-1.3-.7-1.4-1-.4-1.1 1.1 0 1-.4-.5-1.6-1-.8-1.3-1.3-.7-.9.9.4 1.1.1.6-1-.4-1.2-.8-1.3-1.3-.5-.5.9-.9.9-1.1.1-.2-.6-1-.2-1.7 1-.8 1.2-.9 1.8-.4 1.5.5-.3 1.5.1 2.2.9.7.8 1.1 1.5.9 1.6-.2 0-1.1.2-2 .4-.9.1-2.7-.7-4.1-1.9-1.3-1.1-1.8-1.7-1.1-1.3 1.5 1.1 2.9.2 4.4-2.5.7-1.2.7-1.8.1-1.4-.6.4-.9-.4-.8-1.9.2-1.6-.1-2.2-.8-1.8-.6.4-.5-.1.3-1 .7-.9 1.7-1.4 2.2-1.1.5.3.9 0 .9-.5 0-1.4-1.2-1.4-2.8-.1-.7.5-.5.2.3-.8 1.5-1.6 1.7-1.6 3.5.8 1.6 2.1 2.1 2.3 3.2 1.2 1.1-1.1 1-1.2-.6-.6s-1.8.4-1.3-1c.5-1.2.3-1.5-.6-1.1-.6.4-.3 0 .7-.9 1-.8 2.3-1.3 2.7-1 .5.3.9 0 .9-.6s.5-.8 1.2-.4.8.3.4-.4c-.5-.9-1.3-.9-2.7-.2-2.3 1.3-7.1-.7-4.9-2 .7-.5 1.9-.6 2.7-.3.7.3 1.3 0 1.3-.7s-.8-1-2-.7c-1.3.3-1.8.1-1.4-.6.3-.7-.2-.3-1 .7-.9 1.1-1.6 1.5-1.6.8 0-1.8 4.5-4.3 6.4-3.6.9.3 1.6.1 1.6-.6 0-.6-.4-.9-.9-.6-.4.3-1.6-.1-2.7-.8-1-.8-2.4-1.2-3-.9-.7.2-1.5 0-1.8-.6-.4-.6-1.3-.8-2.1-.4-.8.3-1.5-.1-1.5-.8 0-.7.3-.9.6-.6.4.3 1.6.1 2.7-.5 1.7-.9 2.3-.6 3.9 1.3 1.4 1.9 1.7 2 1.1.5-.5-1.6-.3-1.8 1.1-1.3.9.4 1.5.3 1.1-.2-.6-1.1 3.6-.8 5.5.4.8.5 1.8.1 2.7-1 .7-1.1 1.3-1.3 1.3-.7 0 .7.6 1.1 1.3 1 .6-.2 1.1.3.9.9-.2 1.5 1.4 1.7 2.3.4.3-.5.1-1.2-.5-1.6-.6-.4-.8-1.1-.4-1.6.4-.6 1.1-.6 2 .2 1.8 1.4 2.6.8 1.4-1-.5-.9-1.4-1.1-2.6-.6-2.7 1.2-38.4 1.3-38.4.1 0-.5-.7-.1-1.5 1-1.5 1.9-1.5 1.9-.9-.1.4-1.5.1-1.3-1 .5-.8 1.4-1.2 3.4-.9 4.5.5 1.7.4 1.8-.9.7-.9-.7-2.4-.9-3.4-.5-1.7.6-1.7.5-.5-1 .7-.9 1.7-1.4 2.2-1.1.5.3.6-.3.2-1.2-.5-1.3-.3-1.5.7-.9.8.5 1.1.4.6-.3-.3-.5 0-1.3.6-1.5.8-.3.6-.6-.4-.6-1-.1-1.8.3-1.8.9 0 .5-.8 1-1.7 1-1.5 0-1.6-.2-.3-1s1.2-1-.2-1c-2.3 0-2.3 1.6-.2 2.8 1.1.6 1.3 1.2.6 1.6-.6.4-1.8-.6-2.7-2.3-.8-1.6-2-3.3-2.6-3.7-.6-.3-.3.5.6 2 1 1.5 1.3 2.6.7 2.6-.6 0-1.6-.8-2.1-1.9-1.6-2.9-3.4-2.9-6.5.1zm22 4.5c.2 2 .1 2.4-.6 1.3-.5-.8-1.2-1.1-1.7-.7-.4.5-.1 1.2.7 1.7.8.5 1.1 1.2.7 1.7-.5.4-1.2.2-1.6-.5-.5-.9-1.1-.5-1.9 1.3-.7 1.5-1 3-.7 3.5.3.4-.1 1-.8 1.3-1 .4-1.4-.4-1.4-2.4 0-1.5.4-2.6.9-2.3.4.3.5-.2.2-1-.3-.9-1-1.6-1.6-1.6-.5 0-.6.4-.3 1 .3.5.2 1-.4 1-.5 0-1.7.3-2.6.6-.9.4-1.5.3-1.4-.2.4-2.3-.2-3.6-1.5-3.1-1 .4-1.4-.1-1.3-1.4.1-1.4.7-1.9 2.2-1.7 1.1.2 2.1.9 2.1 1.5.1.7.2 1.8.3 2.4.1.8.6.8 1.6-.1 1.2-1 1.8-1 2.9-.1 1.6 1.4 3.2-.2 2.1-2-.7-1 2.6-4.2 3.4-3.3.2.2.6 1.6.7 3.1zm3.8-2.5c-.3.4-.1.8.5.8.5 0 1.2-.6 1.5-1.3.5-.9.7-.9 1.2.1.3.6 1.1.9 1.7.5 1.4-.9 7.9-1.2 7.1-.4-.3.3-1.1.6-1.7.6-1.8 0-1.4 3 .3 3 .8 0 2.1.4 2.8.8.6.5 1.6.6 2.1.2.5-.3 1.3 0 1.7.7.4.7.4 1-.1.6-.4-.4-1.6.4-2.7 1.7-1.9 2.5-1.9 2.5 0 5 1.1 1.3 2.3 2.1 2.7 1.7.5-.4.5-.2.1.5s-1.3 1-2 .7c-.7-.3-1.9.2-2.6 1.1-.7.8-1.8 1.5-2.4 1.5-.6 0-.4-.5.4-1.1 1.3-.9 1.2-1-.2-.5-2 .6-3.4-.9-1.8-1.9.8-.5.7-1.2-.2-2.3-1.1-1.3-1.1-1.4.1-.7 1 .5 1.2.4.7-.3-.5-.8-.1-1 1-.5 1.4.5 1.6.3 1.1-1.1-.5-1.2-.3-1.5.6-1 .7.4.9.3.4-.2s-1.4-.9-2-.9c-.7 0-1.1-.9-1-2 .1-2 .1-2-1.3-.1-1 1.4-1.4 1.6-1.4.5 0-1.2-.2-1.2-1 .1-.5.8-1 1-1 .4 0-.5.4-1.4 1-2 .6-.6.5-1.5-.1-2.4-.9-1.3-1-1.3-.6.1.3.9-.1 1.6-.8 1.6-.7 0-1.1-.6-.8-1.3.5-1.4-4.1-1.4-5.5 0-.4.4-.2.7.3.6.6-.1 1.6-.2 2.4-.1 1.7.1.5 1.6-1.2 1.6-.7 0-1.1 1-1.1 2.3.1 1.6-.3 2.2-1.2 1.8-1.1-.4-1.2-.1-.4 1.4 1.3 2.5 1.3 2.9-.5 2.6-1.8-.3-3.2-1.6-1.7-1.6.7 0 1.2-.5 1.2-1.2 0-.9-.3-.9-1.2 0-1.5 1.5-2.8 1.5-2.8.1 0-.5.5-.7 1.2-.3.7.5.9.2.5-.9s-.2-1.4.8-1.1c1.5.6 3.9-3.1 3-4.5-.8-1.4.4-3.8 2-3.8.8 0 1.2.4.9.9zm19.6-.7c0 .7-3 1.3-3.4.7-.3-.4.4-.9 1.5-.9 1-.1 1.9 0 1.9.2zm-15.4 6.4c-.1 1 .7 1.6 2.1 1.6 1.2 0 2.8.6 3.5 1.4.7.8.8 1.1.2.8-1.6-.9-3.9 1.9-2.4 2.8.8.5.8 1 0 2s-.4 1.8 1.6 3.4c1.5 1.2 2.4 2.1 2.1 2.1-.3 0-1.3.3-2.2.6-.9.4-1.5.3-1.4-.2.3-2-.2-3.4-1.2-3.4-.8 0-.8.4-.1 1.3.7.8.6 1.8-.4 3.1-.8 1.1-1.4 1.4-1.4.7s-.4-1-.9-.6c-.5.3-1.3 0-1.7-.6-.5-.8-.3-.9.7-.4 1.1.7 1.2.6.2-.7-.7-.8-1-1.8-.6-2.2.4-.4 0-.4-.9-.1-.9.4-1.9.2-2.3-.4-.3-.6 0-.9.8-.5.8.3 1.8 0 2.2-.6.5-.8 1.1-.8 2.1.1 1 .8 1.4.8 1.4 0 0-.6-.5-1.1-1.1-1.1-.5 0-.7-.5-.3-1.1.5-.8.9-.8 1.4.1.5.9.9.9 1.4.1.7-1-.6-1.6-2.7-1.2-.5.1-.7-.4-.4-1.1.2-.7 1-1.2 1.6-1 .7.1 1-.2.6-.8-.3-.6-1.1-.7-1.7-.4-.7.5-.8.2-.3-.6.6-.9.4-1.1-.5-.5-.9.6-1.1.4-.5-.4.5-1 .2-.9-1.3 0-1.9 1.2-1.9 1.4-.4 2.6 1.6 1.2 1.6 1.3 0 .7-2-.7-2.5 1.1-.6 2.2.7.4.8.3.4-.4-.5-.8-.1-1 .9-.6 1.9.8.7 2.4-2.1 2.8-1.1.2-1.9.8-1.9 1.4 0 1.3-1.5 2.9-1.6 1.6 0-.5-.2-2-.4-3.4s-.1-1.9.1-1.3c1 2.2 2.2 1.4 1.9-1.2-.1-1.4.1-2.8.6-3 .4-.3.6-1.4.4-2.5-.2-1.2 0-1.8.5-1.5.5.3 1.1.2 1.4-.3.9-1.5 3.3-.9 3.2.7zm-20.9 2.3c.1 1.2-.3 2.6-1 3-1.8 1.1-2.7 1-2.3-.5.1-.6.1-.9-.1-.5-.3.5-.9.8-1.5.8-.7 0-.7-.5.1-1.3.6-.8.8-1.7.4-2.1-.4-.4 0-.4.9-.1.9.4 1.9.2 2.3-.4.9-1.5 1.1-1.4 1.2 1.1zm4.8 1.9c0 .8-.8 1.3-1.9 1.2-1.1-.1-1.5.2-.9.8 1.2 1.2 4.2 1.4 6.5.5 1.1-.5 2-.1 2.7 1.2.8 1.5.7 2.1-.3 2.5-1 .4-1.2-.1-.9-1.6.3-1.3.1-1.8-.4-1.1-1.1 1.4-7.6 1.2-8.6-.3-1-1.6 1-5.6 2.6-5 .7.2 1.2 1 1.2 1.8zm-7.2 4.4c.4.8 1.2 1.5 1.9 1.5 1 0 1-.2-.1-.9-.7-.5-1.1-1.5-.9-2.2.3-1 .8-.7 1.7.9 1 1.8 1 2.6 0 3.8-.9 1.1-1.4 1.2-1.9.3-.6-.8-.9-.8-1.4 0-.4.6-.2 1.1.5 1.1.8 0 .8.4-.1 1.5s-1.6 1.3-2.3.6c-.7-.7-.4-1.7.9-3.2 1.8-2 1.8-2.1-.1-3.5-1.1-.8-2.5-1.2-3.2-1-.7.3-1.1-.3-1-1.4.1-1.7.4-1.7 2.8-.5 1.5.8 2.9 2.1 3.2 3zm8.1 2.1c.3.8-.2 1.1-1.4.9-1.1-.2-2.2.1-2.6.6-.3.5 0 .8.7.7.6-.2 1.4.3 1.6 1 .5 1.3-1.8 1.3-2.7 0-.3-.4-1.1.2-1.8 1.2-.7 1.2-.8 2-.2 2 .5 0 1-.6 1-1.3 0-.8.3-.7 1 .3 1.1 1.7-1.3 3.5-3.1 2.4-.7-.4-1.9.3-2.8 1.5-1.1 1.4-2.3 2-3.4 1.5-1.8-.7-2.3-2.4-.7-2.4.6 0 1 .4 1 1 0 1 10-9 10-10.1 0-1.1 2.9-.5 3.4.7zm5 .8c1.3-.5 3.1 2.4 2.1 3.4-.3.3-.5 0-.5-.7s-.5-.9-1.2-.5c-.6.4-.8.3-.5-.3.3-.5-.2-.9-1.1-.8-.9 0-1.8.5-1.9 1-.1.6.5.9 1.2.7.9-.2 1.3.3 1 1-.3.8-1.5 1.4-2.5 1.5-1.3.1-1.8-.3-1.4-1 .5-.8.3-.8-.7 0-1.6 1.6-2.9 1.7-2.9.3 0-.5.6-.9 1.3-.7.6.1 1.1-.6 1.1-1.5-.1-1 .3-1.6.9-1.5.6.1 1.2-.4 1.3-1.1.3-2.5.5-2.7 1.5-1 .5.9 1.6 1.5 2.3 1.2zm7.4 2.4c-.4 3.3 3.6 5.1 5.2 2.4.7-1.2.9-1.3 1-.3 0 1.1.3 1.1 1.5.1 1.8-1.5 2.4-1.1 3.1 2.3.5 2.8-1.2 4.5-2.8 2.9-.6-.6-1.7-.8-2.6-.4-1.1.4-1.4.1-.9-1 .4-1.3-.1-1.5-2.8-1.2-2.8.2-3.3 0-3-1.5.2-1-.3-1.8-1-1.8-.8 0-1.3.5-1.2 1 .1.5-.4 1.2-1.1 1.4-1 .4-1-.2.2-2.6 1-1.9 2.1-2.8 3.1-2.5.8.3 1.4.9 1.3 1.2zm-6.1 2.7c-.9 2.1 1.1 2.9 3 1.3.9-.7 1.4-.8 1-.2-.4.7 0 1.7.8 2.4 1.2 1 1.5 1 1.5-.1s.2-1.1 1 .1c.9 1.3 1 1.3 1 0 0-1.1.2-1.2.8-.2.5.6 2.3 2.3 4.2 3.7 1.9 1.4 2.9 2.5 2.3 2.5-.6 0-1.6-.7-2.3-1.5-1.5-1.8-3.4-2-2.7-.2.3.9-.8 1.3-4.2 1.2-3.3 0-4.6-.4-4.6-1.4 0-.8.6-1.5 1.3-1.7.7-.1.8 0 .2.3-.5.2-1 .9-1 1.4 0 .6.6.7 1.3.2.6-.4 1.8-.8 2.5-.9 2-.3 2.5-1.1 1.3-1.9-.6-.3-1.1-.1-1.1.5s-1 .4-2.5-.6c-2.3-1.5-3-1.3-2.6.8 0 .5-.6.8-1.4.8-1.8 0-1.9-1.2-.2-2.9.6-.7.8-1.1.2-.9-1.1.3-1.5-.4-1.5-2.7 0-.8.5-1.5 1.1-1.5.6 0 .9.7.6 1.5zm-6.9 1.7c-.2.7.2 1.4.7 1.5.6.2 1.1-.2 1.1-.7.1-.6.2-1.3.3-1.7 0-.4.7.2 1.5 1.2.8 1.1 1.2 2.4.9 2.9-.4.5.2 1.5 1.2 2.3 1.6 1.1 1.6 1.3.3 1.3-.9 0-1.9-.9-2.3-1.9-.6-1.9-4.5-2.6-4.5-.9 0 .4-.5.8-1.1.8-.6 0-.8-.9-.4-2.3.3-1.2.3-1.8-.2-1.2-.4.5-1.7 1.1-2.8 1.3-1.3.1-.7-.5 1.5-1.7 4.2-2.4 4.2-2.4 3.8-.9zm28.3 4.5c1.3 1.6 1.2 1.7-.3.4-1.7-1.3-2.2-2.1-1.4-2.1.2 0 1 .8 1.7 1.7z"/><path d="M222.9 455.7c-1.3 1.6-1.2 1.7.4.4.9-.7 1.7-1.5 1.7-1.7 0-.8-.8-.3-2.1 1.3zM236 456c.5 1 .8 1.9.7 2.1-.1.2 0 .3.2.1 1.1-.6.6-3.9-.5-3.9-.9 0-1 .5-.4 1.7zM240.3 458.8c-.9.6-.6 1.1.7 2 1 .6 2.1.8 2.4.3.8-1.3-1.8-3.1-3.1-2.3zM240 466c-1.3.8-1.3 1-.1 1 1.1 0 1 .4-.4 1.3-1.7 1.3-1.7 1.4.4 1.2 1.2-.1 2.6-.6 3.2-1.2 1.5-1.5-1.2-3.5-3.1-2.3zm2.5.9c.3.5.2 1.2-.3 1.5-.5.3-.9-.1-.9-.9 0-1.7.3-1.9 1.2-.6zM229.9 460.7c-1.3 1.6-1.2 1.7.4.4 1.6-1.3 2.1-2.1 1.3-2.1-.2 0-1 .8-1.7 1.7zM235.6 463.2c.3.5 1 .6 1.5.3 1.3-.9 1.1-1.2-.6-1.2-.8 0-1.2.4-.9.9zM232.4 471.4c.3 2.2 2.2 4 3 2.8.3-.5-.3-1.7-1.3-2.7-1.7-1.5-1.9-1.5-1.7-.1zM238.5 476.9c-.3.6-1 .9-1.4.7-.4-.3-.8.1-.8.9s.4 1.2.8.9c.4-.2 1 0 1.4.6 1.1 1.7 2.5 1.1 2.2-1-.4-2.5-1.3-3.4-2.2-2.1zm1.2 1.6c0 .8-.4 1.2-.9.9-.5-.3-.6-1-.3-1.5.9-1.3 1.2-1.1 1.2.6zM233.3 483.1c-.2 2.3.3 2.5 1 .4.4-.8.3-1.6-.1-1.9-.4-.3-.9.4-.9 1.5zM274.5 449.9c-1.1.5-2.6.6-3.2.4-.7-.3-1.3.2-1.3 1.1 0 .9.7 1.6 1.5 1.6s1.5-.5 1.5-1.2c0-.6.6-.3 1.4.8.8 1 1 2 .5 2.2-.5.2-.9.9-.9 1.5s.7.4 1.7-.5c1.4-1.5 1.4-1.9.2-3.4-.9-1.2-1-1.5-.1-1 .7.4 1.2.1 1.2-.8s-.1-1.6-.2-1.5c-.2 0-1.2.4-2.3.8zM156.4 452.2c-1.2 1.4-1.3 1.8-.3 1 .9-.6 1.8-1 2.1-.7.2.3.5-.2.5-1 0-1.9 0-1.9-2.3.7zM161.4 451.9c0 1.1.5 1.7 1.3 1.4 1-.4 1.1-.9.2-1.9-1.5-1.8-1.5-1.8-1.5.5zM172.3 451.9c-1 1.5-.9 2 .2 2.5.8.3 1.7 0 2.1-.6.5-.7.2-.8-.6-.3-.9.5-1 .2-.5-1.4.8-2.6.4-2.7-1.2-.2zM194.8 450.7c.7.3 1.6.2 1.9-.1.4-.3-.2-.6-1.3-.5-1.1 0-1.4.3-.6.6zM165 451.8c0 .5.7.9 1.5.9s1.2-.4.9-.9c-.3-.4-.9-.8-1.5-.8-.5 0-.9.4-.9.8zM191 451.8c0 .4 1 .9 2.2.9 1.8.2 2 0 .8-.7-1.8-1.2-3-1.3-3-.2zM267 452c0 .5.6 1 1.3 1 .6 0 .4.5-.6 1.1-1.3.8-2.3.7-3.5-.3-1.5-1.1-1.6-1.1-.4.3 1 1.3 1 1.9-.2 2.9-1.6 1.2-4 .5-3.1-1 .4-.7-1.9-.7-3.5.1-1.4.6-3.6.4-4.2-.5-.4-.6-1.2-.5-2.1.2-.7.7-1.7.9-2.1.5-.4-.4-.4 0-.1.9.4 1 1.2 1.6 1.8 1.5.7-.1 1.2.6 1.2 1.5s.4 2 .9 2.5.6.2.1-.7c-.5-.8-.4-1.2 0-.7.5.4.9 1.6 1 2.7.1 1.8-.1 1.7-2.3-.5-1.4-1.4-2.9-2.5-3.5-2.5-.6 0-.3.6.8 1.3 2.1 1.6 1.1 4.1-1.4 3.2-1.2-.5-1.3-.4-.4.6 1 1 1.5.9 2.8-.1 1-.8 1.9-.9 2.8-.3 1.7 1.4 4.5 1.2 5.1-.3.3-.9-.1-1.1-1.1-.7-1.2.5-1.5.2-1-1 .4-1 0-2-1-2.5-1.1-.6-1.4-1.6-.9-2.8.6-1.6.8-1.6 1.6-.4.8 1.3 1.2 1.2 2.5-.5 1.4-1.7 1.6-1.8 1.1-.2-.4 1.2-.2 1.6.6 1.1.6-.4 1.7.1 2.5 1.1.7 1.1 1.4 1.6 1.4 1.2.1-.4.2-1.3.3-2 .1-.6.9-1.1 1.9-.9 1 .2 1.6-.3 1.5-1-.2-.6.4-1.2 1.2-1.3 1.4 0 1.6-.6 1.2-3.5-.1-.6-.6-1-1.2-1-.5 0-1 .4-1 1zM185.4 454.2c-.3.5-.3 1.2 0 1.5.3.4.6.2.6-.3s1-1 2.3-1.1c2.2-.2 2.2-.2.2 1.3-1.4 1.1-1.5 1.5-.5 1.4 2.8-.4 4 0 3.8 1.1-.2.6.3 1.3 1 1.5.7.1.8 0 .3-.2-.5-.3-.8-1.7-.6-3.2.2-1.5.2-2.1-.1-1.5-.7 1.7-2.5 1.7-2.1.1.2-1.4-4.1-2-4.9-.6z"/><path d="M270.8 455c-1.4 1-2.9 1.6-3.2 1.2-.4-.4-.7-.2-.6.3.1.6.2 1.6.1 2.4-.1 1.1-.4 1.1-1.8 0-1-.8-1.4-.9-1-.2.4.6.3 1.4-.3 1.8-.5.3-1 1.1-1 1.7 0 .7.6.6 1.5-.2 1.2-1 1.8-1 3.2.1 1.5 1.2 1.6 1.2 1-.4-.4-1-.3-1.6.2-1.3.5.3 1.2-.1 1.5-1 .4-1.2.2-1.5-.9-1-2.2.8-1.8-.2.6-1.5 1.2-.6 1.9-.7 1.5-.1-.3.5 0 1.2.7 1.5 1 .4 1.4-.4 1.4-2.4 0-1.6-.1-2.9-.2-2.9s-1.4.9-2.7 2zM161.3 456.6c0 1.1.3 1.1 1.6.1 1.2-1 1.4-.9.9.4-.4.9-.1 1.6.8 1.6s1-.5.5-1.5c-1.1-2-3.8-2.4-3.8-.6zM174.1 456c-.9.5-.4.7 1.3.7 2.9 0 3.2-.2 1.3-1-.8-.3-2-.2-2.6.3zM182.5 456c-.3.5-.1 1 .4 1 .6 0 1.1-.5 1.1-1 0-.6-.2-1-.4-1-.3 0-.8.4-1.1 1zM243 456c0 .5.5 1 1 1 .6 0 1-.5 1-1 0-.6-.4-1-1-1-.5 0-1 .4-1 1zM150.8 458.1c.6.9.9 1.8.6 2.2-.3.3.2.4 1.3.2 1-.1 2.7.5 3.8 1.4 2 1.6 2 1.6.1-.7-1.1-1.2-2.1-2-2.4-1.7-.3.3-1.5-.3-2.6-1.2-1.5-1.4-1.8-1.4-.8-.2zM170.7 459.1c.7 2.6 1.9 3.2 1.9.9 0-1.1-.6-2.2-1.2-2.4-.7-.3-1 .3-.7 1.5zM179.5 459.1c.6 3.2 1.3 3.4 1.3.4 0-1.4-.4-2.5-.9-2.5-.4 0-.6 1-.4 2.1zM184.4 458.1c-.4.7-.3.9.4.5s1 .1.9 1.4c-.1 2.1-1.2 2.7-2 1-.3-.6-.4-.5-.3.2.4 2.2 2.9 1.5 3.2-.9.4-2.5-1.1-3.9-2.2-2.2zM274.2 459.4c-.9 2.1-.9 2.4.7 2.3 1.2-.1 1.9-.9 1.9-2.4 0-3-1.2-2.9-2.6.1zM139 458.4c0 .2.8 1 1.8 1.7 1.5 1.3 1.6 1.2.3-.4s-2.1-2.1-2.1-1.3zM188.6 459.6c-.4.9-.4 1.9-.1 2.2.3.3.5 0 .5-.7s.4-.9 1-.6c.6.3.7-.1.4-.9-.8-2-1-2-1.8 0zM195.6 460.5c.4.8.8 1.5 1 1.5.2 0 .4-.7.4-1.5s-.4-1.5-1-1.5c-.5 0-.7.7-.4 1.5z"/><path d="M255.6 461.1c.8.9 1.1 1.9.7 2.3-.5.4-.2.6.6.4.7-.2 1.5.5 1.6 1.4.3 1.6 0 1.9-2 1.8-.3 0-1.8.6-3.4 1.4-1.6.9-3.1 1.3-3.3 1-.3-.3-.9.3-1.2 1.3-.4.9-.4 1.4 0 1 .4-.4 1.3-.2 2.1.5.7.6 1.7.8 2 .4.4-.4.1-1.2-.7-1.7-1.2-.9-1.2-1 .3-.5 1.1.3 1.6.2 1.2-.4-.3-.6-.1-1 .5-1 .7 0 1 .7.6 1.7-.4 1.1.2.8 1.4-.7 1.4-1.7 1.8-1.9 1.4-.7-.6 1.7-.5 1.8 1.4.6 2.2-1.4 2.4-2.9.7-4.1-.6-.5-.5-.8.3-.8.6 0 1.2-.5 1.2-1 0-.6-.6-1-1.4-1-2.2 0-2.8-1.7-.9-2.4 1-.4 1.4-.4 1.1 0-.4.4.4 1.6 1.9 2.7 2.3 1.9 2.4 2.1.9 3.3-1 .7-1.3 1.5-.8 1.8 1.4.8 3.5-2.1 2.6-3.5-.5-.8-.3-.9.6-.4.9.5 1.1.4.6-.3-.4-.7-.2-1.2.4-1.2.7 0 .9.8.5 2-.5 1.5-.3 1.8.9 1.4 1.6-.6 2.1.5 1.6 3.6-.1 1.2.1 1.2 1.1.3.9-.9 1.6-.9 2.5-.2.7.6 1.8.8 2.4.4 1.4-.9 1.3-2.5-.2-2-1.9.7-3.8-.8-4.3-3.3-.3-1.9-.1-2.1 1.5-1.2 3.1 1.6 3.7 1.1 1.1-1-1.3-1.1-1.8-2-1.2-2 .6 0 1.1-.5 1.1-1 0-2.1-1.8-.9-3 2-1.1 2.8-1.4 2.9-2.5 1.3-1.1-1.4-1.5-1.5-2.9-.4-1.3 1.1-1.7.9-2.7-1.2-.9-1.9-1.8-2.4-4.4-2.3-3 .1-3.2.3-1.9 1.7zM159.4 461.4c.1.8.5 1.8.8 2.2.4.3.5-.1.4-1-.1-.8-.5-1.8-.8-2.2-.4-.3-.5.1-.4 1zM174 460.4c0 .2.7.6 1.5 1 .8.3 1.5.1 1.5-.4 0-.6-.7-1-1.5-1s-1.5.2-1.5.4zM167.5 461.9c-.9 1.5 1.5 2.5 2.8 1.2.9-.9.7-1-.7-.5-1.3.5-1.7.4-1.2-.4.4-.7.5-1.2.2-1.2s-.7.4-1.1.9zM194.4 463.1c1.6 2.3 1.1 5.3-.7 4.2-.6-.3-.3.4.6 1.6.8 1.3 1.3 3.1 1 4-.4 1.3-.3 1.3.5.2.6-.8.8-2.1.5-3-.5-1.4-.3-1.3 1.2.1 1.8 1.7 1.8 1.8-.3 3.6-1.2 1.1-2.2 2.3-2.2 2.7 0 .5 1.1-.2 2.5-1.5 3-2.8 3.1-3.5.5-5.7-2.8-2.5-2.5-3.8.5-1.9 3.8 2.5 4.3 1.9.5-.9-1.9-1.4-3-2.5-2.6-2.5.4 0 .1-.7-.8-1.5-2.2-2.2-2.9-1.8-1.2.6zM198 461.9c0 .6.5 1.1 1.1 1.1.5 0 .8.4.5.9-.3.5.1 1.4.9 2.1 1 .9 1.5.9 1.5.1 0-.6-.5-1.1-1.1-1.1-.5 0-.8-.4-.5-.9.3-.5-.1-1.4-.9-2.1-1-.9-1.5-.9-1.5-.1zM153 462.4c0 .2.8 1 1.8 1.7 1.5 1.3 1.6 1.2.3-.4s-2.1-2.1-2.1-1.3zM190 462.4c0 .2.7.7 1.6 1 .8.3 1.2.2.9-.4-.6-1-2.5-1.4-2.5-.6zM171.4 464.1c-.4.7-.3.9.4.5.5-.3 1.3 0 1.5.6.4.9.6 1 .6.1.1-1.7-1.6-2.5-2.5-1.2zM177 464.2c0 .4.4.8.9.8.6 0 1.2-.4 1.5-.8.3-.5-.1-.9-.9-.9s-1.5.4-1.5.9zM181 464c0 .5.5 1 1 1 .6 0 1-.5 1-1 0-.6-.4-1-1-1-.5 0-1 .4-1 1zM187 464c0 .5.5 1 1 1 .6 0 1-.5 1-1 0-.6-.4-1-1-1-.5 0-1 .4-1 1zM161.4 465.2c-.4.7-.3.8.5.4.6-.4 2-.2 2.9.6 1.5 1.2 1.6 1.1.3-.5-1.6-2-2.7-2.2-3.7-.5zM151 465.8c0 .5.7.9 1.5.9s1.2-.4.9-.9c-.3-.4-.9-.8-1.5-.8-.5 0-.9.4-.9.8zM175 465.9c0 .5.7 1.5 1.7 2.2 1.5 1.3 1.5 1.2.4-.9-1.2-2.3-2.1-2.8-2.1-1.3zM183.5 466.1c-1.1 1.6-.1 1.9 1.3.3.7-.8.8-1.4.3-1.4s-1.3.5-1.6 1.1z"/><path d="M189.9 465.2c0 .2-.2 1.1-.4 2.1s-1.1 2.7-2.1 3.8c-.9 1-1.3 1.9-.8 1.9 1.2 0 4.8-6 3.7-6.1-.4-.1.3-.5 1.7-.9 2.4-.8 2.4-.8.3-.9-1.3-.1-2.3 0-2.4.1zM156.4 467.8c2.3 2.6 2.3 2.6 2.3.7 0-.8-.3-1.3-.5-1-.3.3-1.2-.1-2.1-.7-1-.8-.9-.4.3 1zM168.3 467c-1.3.5-2.3 1.1-2.3 1.4 0 .7 4-.6 4.6-1.5.6-1 .6-1-2.3.1zM179.3 468.7c-.1 1.9.1 2.2.8 1.2 1.1-1.7 1.2-3.9.2-3.9-.5 0-.9 1.2-1 2.7zM187.1 467.2c-.1 1-.5 1.8-1.1 1.8-.5 0-1 .5-1 1.2 0 .8.6.7 1.6-.4.9-.9 1.4-2.2 1.1-3-.4-.9-.6-.7-.6.4zM161.4 467.8c.4.3 1.4.7 2.2.8.9.1 1.3 0 1-.4-.4-.3-1.4-.7-2.2-.8-.9-.1-1.3 0-1 .4zM173 468c0 .5.5 1 1.1 1 .5 0 .7-.5.4-1-.3-.6-.8-1-1.1-1-.2 0-.4.4-.4 1zM263.6 469.1c-1 1.5-1.6 1.8-1.6.9 0-1.2-.2-1.2-.9-.2-.4.8-1.2 1.4-1.7 1.5-.5.1-.8.5-.6.9.1.5-.2.8-.7.8-1 0-.9 2.6.2 3.6.6.7 1.1-.9.9-2.8-.1-.3.5-1.2 1.3-1.8 1.2-1 1.5-1 1.5 0s.3 1 1.5 0c.8-.7 1.2-1.7.8-2.3-.3-.6-.1-.7.5-.3.7.4 1.9.3 2.8-.2 1.1-.6 1.3-1.1.5-1.6-.6-.4-1.1-.1-1.1.6 0 1-.2 1-.9-.1-.7-1-1.2-.8-2.5 1zM180.6 471.5c-1.3 1.9-1.3 2.3-.2 1.9.8-.3 1.6-1.4 1.9-2.5.7-2.5.3-2.4-1.7.6zM171.4 471.1c-.3.6-.1 1.6.6 2.2 1 .9 1.1.9.5-.2-.4-.8-.2-1.7.6-2.2.9-.6 1-.9.2-.9-.6 0-1.5.5-1.9 1.1zM175.7 471.1c.7.7 1.5 1 1.8.7.3-.3-.2-.9-1.2-1.2-1.4-.6-1.5-.5-.6.5zM267 471.4c0 .9.5 1.6 1 1.6.6 0 1-.4 1-.9 0-.6-.4-1.3-1-1.6-.5-.3-1 .1-1 .9z"/><path d="M269.6 472.3c-1.4 2-1.7 2-2.8.6-1.1-1.4-1.5-1.4-2.6-.3-.7.7-1.8 1.1-2.5.8-.8-.3-1.4.2-1.4 1s.4 1.3.9 1c.4-.3.8 0 .8.6s.5.8 1 .5c.6-.4.8-1 .5-1.5-.3-.5.7-.7 2.2-.4 3.2.6 4.4 1.4 2 1.4-.9 0-1.9.5-2.3 1.2-.5.8-.2.9 1.2.3 1-.4 3.5-.9 5.4-.9 3.6-.1 5-2.4 2-3.4-1.3-.5-1.3-.3 0 1.4s1.3 1.7-.9-.1l-2.4-2 .7 2c.5 1.5.4 1.7-.5.8-1.3-1.3-.3-3.7 1.2-2.8.5.4.9.2.9-.4 0-2.1-1.8-2-3.4.2zM290 470.7c0 1.3 2.9 3.8 3.5 3.1.3-.3-.4-1.3-1.5-2.3-1.1-1-2-1.3-2-.8zM189.5 472c-.3.5-.3 1 .2 1 .4.1-.3.7-1.7 1.5-2.9 1.6-1.9 2 1.1.4 1.1-.5 1.6-1.5 1.3-2.1-.5-.7 0-.9 1.4-.6 1.2.4 2.2.2 2.2-.3 0-1.2-3.7-1.1-4.5.1zM255.2 472.2c-.6.6-1.9 1.2-2.9 1.3-1 0-2.4.4-3.1.9-.6.4-1.8.4-2.4-.1-2.2-1.3-3.5-1.1-3.5.6 0 2.3 2 4.1 4.7 4.1.6 0 .9.3.9.7-.4 2.6.2 3.5 1.5 2.4 1.1-.9 1.9-.9 3.5.1 2.5 1.5 3.9.4 2.1-1.7-1.7-2.1-3.5-1.9-1.9.2 1.3 1.7 1.3 1.7-.7.1-1.6-1.4-2.3-1.5-3.4-.5-1 .9-1.1.9-.6-.1.4-.7.1-1.5-.8-1.8-1.2-.5-1.3-.9-.3-1.9 1-1 1.5-.9 2.6.7 1.2 1.8 1.5 1.9 2.3.4.5-.9.7-2 .4-2.4-.3-.5.1-.9.9-.9 1 0 1.1.5.4 1.8-.8 1.5-.6 1.8.8 1.3s1.5-.4.4.4c-.8.6-.9 1.2-.3 1.6 1.5.9 2.6-1.2 1.4-2.7-.5-.7-.8-2.2-.6-3.5.4-2.5.3-2.7-1.4-1zm-8.8 3.9c-.3.5-1 .7-1.5.3-.5-.3-.7-1-.3-1.5.3-.5 1-.7 1.5-.3.5.3.7 1 .3 1.5zm6.6.1c0 .6-.6.5-1.5-.2-.8-.7-1.5-1.4-1.5-1.6 0-.2.7-.1 1.5.2.8.4 1.5 1.1 1.5 1.6zM168 474c-.9.6-1 1-.3 1 .6 0 1.5-.5 1.8-1 .8-1.2.4-1.2-1.5 0zM174.8 473.7c.7.3 1.6.2 1.9-.1.4-.3-.2-.6-1.3-.5-1.1 0-1.4.3-.6.6zM183 474c0 .5.5 1 1 1 .6 0 1-.5 1-1 0-.6-.4-1-1-1-.5 0-1 .4-1 1zM191.5 475c-.8 1.3.2 2.8 2.8 4.1 2 .9 2 .8-.2-1.1-2.1-1.8-2.2-2.3-1-3.1.9-.5 1-.9.2-.9-.6 0-1.5.4-1.8 1zM173.5 476c.3.5.8 1 1.1 1 .2 0 .4-.5.4-1 0-.6-.5-1-1.1-1-.5 0-.7.4-.4 1z"/><path d="M264.1 476.3c-.6.8-.7 1.7-.3 2.2.4.4-.3.2-1.5-.6-2-1.2-2.4-1.1-3.7.6-.7 1-1.1 2.5-.8 3.3.4 1.2.6 1.2 1.4-.1.5-1 1.7-1.4 3.4-1.1 2 .4 2.5.1 2.2-1.3-.1-1 .1-2.4.5-3.1 1.1-1.6.2-1.5-1.2.1zm-2.5 2.9c.4.7.4 1-.1.6-.4-.4-1.5-.2-2.4.5-1.4 1.1-1.4 1-.2-.6 1.6-2 1.8-2.1 2.7-.5zM290 477.1c0 .5.5.7 1 .4.6-.3 1-.8 1-1.1 0-.2-.4-.4-1-.4-.5 0-1 .5-1 1.1zM181 478c0 .5.5 1 1.1 1 .5 0 .7-.5.4-1-.3-.6-.8-1-1.1-1-.2 0-.4.4-.4 1zM185.3 478.3c-.3.5-.2 1.1.1 1.4.3.4.6.2.6-.3s.9-1 1.9-1.1c1.4-.1 1.8.3 1.4 1.5-.4 1.4-.3 1.4.5.2.6-.8.9-1.7.6-2.1-.6-1-4.4-.7-5.1.4zM266.5 479.1c-.4.6-.4 1.3-.1 1.6.3.4.6.1.6-.6s.9-.3 2 1c2.1 2.6 2.6 1.9 1-1.2-1.2-2.1-2.5-2.5-3.5-.8zM191.8 480.7c.7.3 1.6.2 1.9-.1.4-.3-.2-.6-1.3-.5-1.1 0-1.4.3-.6.6zM197 480.9c0 .5.5 1.3 1 1.6.6.3 1 .2 1-.4 0-.5-.4-1.3-1-1.6-.5-.3-1-.2-1 .4zM241.4 483.8c.4.3 1.4.7 2.2.8.9.1 1.3 0 1-.4-.4-.3-1.4-.7-2.2-.8-.9-.1-1.3 0-1 .4z"/></svg>