<svg id="Layer_1" class="home-header--headline" data-name="Layer 1" xmlns="http://www.w3.org/2000/svg" viewBox="0 0 523.64 164.88">
  <defs>
    <style>
      .letter-black {
        fill: #222;
      }

      .letter-green {
        fill: #222;
      }
    </style>
  </defs>
  <title>v360-headline</title>
<g class="text-row-1">
	  <path class="letter-black" d="M30.9,0V23c0,4.28-1.12,7-3.67,8.87a16.84,16.84,0,0,1-9.94,2.91,16.9,16.9,0,0,1-10-2.91C4.74,30,3.62,27.28,3.62,23V0h7.65V22.49c0,2.29.36,3.31,1.38,4.28a7,7,0,0,0,4.64,1.53,7,7,0,0,0,4.59-1.53c1-1,1.37-2,1.37-4.28V0Z"/>
	  <path class="letter-black" d="M44.32,9.38v2.4C47,9.33,48.5,8.67,51.05,8.67c5.36,0,8.62,3.57,8.62,9.38V34H52.43V20.6c0-2.5-.15-3.47-.76-4.38a3.45,3.45,0,0,0-3-1.43,4.08,4.08,0,0,0-3.11,1.32c-.82.92-1.07,1.94-1.07,4.08V34H37.29V9.38Z"/>
	  <path class="letter-black" d="M72.82,34H65.57V0h7.25Z"/>
	  <path class="letter-black" d="M84.78,23.81c.45,3.37,2.44,5.21,5.55,5.21a4.63,4.63,0,0,0,4.29-2.2H102c-1.38,4.8-6,7.86-11.83,7.86-7.6,0-12.65-5.2-12.65-13s5.15-13,12.6-13c5.2,0,9.13,2.6,11,7.24a19.91,19.91,0,0,1,1.23,7.85Zm10-5.09c-.3-2.91-2-4.49-4.79-4.49s-4.64,1.58-5.2,4.49Z"/>
	  <path class="letter-black" d="M106.79,17.13c.46-5.66,4-8.41,10.91-8.41,3.72,0,6.58.87,8.52,2.55,1.78,1.58,2.44,3.57,2.44,7.19V29.78c0,2.65.11,3,.92,4.23h-7.39a18.82,18.82,0,0,1-.56-1.93,9.61,9.61,0,0,1-7,2.6c-5.46,0-9.08-3.06-9.08-7.7s2.91-7,9.79-8.16l3.93-.67c1.63-.25,2.19-.66,2.19-1.68,0-1.38-1.43-2.24-3.77-2.24-2.65,0-4.08.92-4.39,2.9Zm14.84,5.15a14.47,14.47,0,0,1-2.65.77l-2.61.56c-2.6.61-3.72,1.48-3.72,3s1.38,2.6,3.67,2.6a5.67,5.67,0,0,0,5.31-3.11Z"/>
	  <path class="letter-black" d="M148,16.78c-.3-1.84-1.78-2.81-4.18-2.81-2.09,0-3.46.82-3.46,2,0,.92.71,1.38,3,1.89l4.54,1c3,.61,4.54,1.27,5.61,2.4a6.86,6.86,0,0,1,1.84,4.94c0,5.2-4.23,8.47-11.07,8.47S133.25,31.46,132.84,26h6.78c.41,2.34,1.94,3.41,4.84,3.41,2.3,0,3.78-.91,3.78-2.39,0-1.18-.82-1.79-2.76-2.25l-4.48-1c-5.41-1.17-7.5-3.16-7.5-7.08,0-4.95,3.93-8,10.51-8,6.32,0,10.14,2.86,10.81,8.06Z"/>
	  <path class="letter-black" d="M167.25,11.47a8.83,8.83,0,0,1,6.53-2.75,8.39,8.39,0,0,1,6.32,2.65c1.58,1.74,2.19,3.83,2.19,7.5V34h-7.24V20.19c0-2.29-.2-3.21-.81-4.08a3.47,3.47,0,0,0-2.86-1.27,4.55,4.55,0,0,0-3.16,1.22c-.82.87-1,1.58-1,4.13V34H160V0h7.24Z"/>
	  <path class="letter-black" d="M211.06,9.38l-.2,2.91c2.09-2.6,3.87-3.57,6.93-3.57,6.48,0,10.86,5.2,10.86,12.9,0,7.86-4.33,13.06-10.81,13.06A8.88,8.88,0,0,1,211.21,32v9.8H204V9.38ZM211,21.67c0,4.39,2,7.14,5.3,7.14s5.25-2.75,5.25-7-2-7.19-5.3-7.19S211,17.34,211,21.67Z"/>
	  <path class="letter-black" d="M258.29,21.88c0,7.44-5.51,12.8-13.11,12.8s-13.05-5.36-13.05-13,5.4-12.95,13.05-12.95S258.29,14,258.29,21.88Zm-18.87-.21c0,4.64,2.09,7.24,5.81,7.24s5.77-2.6,5.77-7.08c0-4.75-2-7.35-5.82-7.35S239.42,17.08,239.42,21.67Z"/>
	  <path class="letter-black" d="M275.47,14.79H271v9.59c0,3.87.15,4.18,1.83,4.18h2.61V34H271c-3.16,0-4.74-.46-5.81-1.63s-1.43-2.55-1.43-6.37V14.79h-3.47V9.69h3.47V1.89H271v7.8h4.44Z"/>
	  <path class="letter-black" d="M285.37,23.81c.46,3.37,2.44,5.21,5.55,5.21a4.63,4.63,0,0,0,4.29-2.2h7.34c-1.38,4.8-6,7.86-11.83,7.86-7.6,0-12.65-5.2-12.65-13s5.15-13,12.6-13c5.2,0,9.13,2.6,11,7.24a19.91,19.91,0,0,1,1.23,7.85Zm10-5.09c-.3-2.91-2-4.49-4.79-4.49s-4.64,1.58-5.2,4.49Z"/>
	  <path class="letter-black" d="M314.58,9.38v2.4c2.65-2.45,4.18-3.11,6.73-3.11,5.36,0,8.62,3.57,8.62,9.38V34h-7.24V20.6c0-2.5-.15-3.47-.76-4.38a3.45,3.45,0,0,0-3-1.43,4.1,4.1,0,0,0-3.11,1.32c-.82.92-1.07,1.94-1.07,4.08V34h-7.24V9.38Z"/>
	  <path class="letter-black" d="M348.33,14.79H343.9v9.59c0,3.87.15,4.18,1.83,4.18h2.6V34H343.9c-3.16,0-4.74-.46-5.82-1.63s-1.42-2.55-1.42-6.37V14.79h-3.47V9.69h3.47V1.89h7.24v7.8h4.43Z"/>
	  <path class="letter-black" d="M360.16,6h-7.24V0h7.24Zm0,28h-7.24V9.38h7.24Z"/>
	  <path class="letter-black" d="M366.1,17.13c.46-5.66,4-8.41,10.91-8.41,3.72,0,6.58.87,8.52,2.55,1.78,1.58,2.45,3.57,2.45,7.19V29.78c0,2.65.1,3,.91,4.23H381.5a18.82,18.82,0,0,1-.56-1.93,9.61,9.61,0,0,1-7,2.6c-5.46,0-9.08-3.06-9.08-7.7s2.91-7,9.8-8.16l3.92-.67c1.63-.25,2.19-.66,2.19-1.68,0-1.38-1.42-2.24-3.77-2.24-2.65,0-4.08.92-4.38,2.9Zm14.84,5.15a14.47,14.47,0,0,1-2.65.77l-2.6.56c-2.61.61-3.73,1.48-3.73,3s1.38,2.6,3.67,2.6a5.66,5.66,0,0,0,5.31-3.11Z"/>
	  <path class="letter-black" d="M401.1,34h-7.24V0h7.24Z"/>
	  <path class="letter-black" d="M414.15,34H407V26.87h7.14Z"/>
</g>
<g class="text-row-2">
  <path class="letter-black" d="M11.27,80.53V95.21H3.62v-34h7.65V74H23.76V61.2h7.65v34H23.76V80.53Z"/>
  <path class="letter-black" d="M37.9,78.33c.46-5.66,4-8.41,10.92-8.41,3.72,0,6.57.87,8.51,2.55s2.45,3.57,2.45,7.19V91c0,2.65.1,3,.92,4.23H53.3c-.3-.86-.3-1-.56-1.93a9.59,9.59,0,0,1-7,2.6c-5.45,0-9.07-3.06-9.07-7.7s2.9-7,9.79-8.16l3.93-.67c1.63-.25,2.19-.66,2.19-1.68,0-1.38-1.43-2.24-3.78-2.24-2.65,0-4.08.92-4.38,2.9Zm14.84,5.15a13.5,13.5,0,0,1-2.65.77l-2.6.56c-2.6.61-3.72,1.48-3.72,3,0,1.63,1.37,2.6,3.67,2.6a5.66,5.66,0,0,0,5.3-3.11Z"/>
  <path class="letter-black" d="M72.78,70.58,72.58,75c1.42-4,3.26-5.1,8.51-5v6.83a12.86,12.86,0,0,0-1.83-.1c-2.5,0-4.54,1.12-5.36,3-.71,1.63-1,3.93-1,8.67v6.93H65.69V70.58Z"/>
  <path class="letter-black" d="M91.48,70.58V73c2.65-2.45,4.18-3.11,6.73-3.11,5.35,0,8.62,3.57,8.62,9.38v16H99.58V81.8c0-2.5-.15-3.47-.76-4.38a3.42,3.42,0,0,0-3-1.43,4.11,4.11,0,0,0-3.11,1.32c-.81.92-1.07,1.94-1.07,4.08V95.21H84.44V70.58Z"/>
  <path class="letter-black" d="M118.7,85c.45,3.37,2.44,5.21,5.55,5.21a4.63,4.63,0,0,0,4.29-2.2h7.34c-1.38,4.8-6,7.86-11.83,7.86-7.6,0-12.65-5.2-12.65-13s5.15-13,12.6-13c5.2,0,9.13,2.6,11,7.24A19.91,19.91,0,0,1,136.19,85Zm10-5.09c-.3-2.91-2-4.49-4.79-4.49s-4.64,1.58-5.2,4.49Z"/>
  <path class="letter-black" d="M154.36,78c-.3-1.84-1.78-2.81-4.18-2.81-2.09,0-3.47.82-3.47,2,0,.92.72,1.38,3,1.89l4.54,1c3,.61,4.54,1.27,5.61,2.4a6.86,6.86,0,0,1,1.84,4.94c0,5.2-4.24,8.47-11.07,8.47s-11.06-3.22-11.47-8.67H146c.41,2.34,1.94,3.41,4.84,3.41,2.3,0,3.78-.91,3.78-2.39,0-1.18-.82-1.79-2.76-2.25l-4.48-1c-5.41-1.17-7.5-3.16-7.5-7.08,0-4.95,3.93-8,10.5-8,6.33,0,10.15,2.86,10.82,8.06Z"/>
  <path class="letter-black" d="M179.87,78c-.3-1.84-1.78-2.81-4.18-2.81-2.09,0-3.47.82-3.47,2,0,.92.72,1.38,3,1.89l4.54,1c3,.61,4.54,1.27,5.61,2.4a6.86,6.86,0,0,1,1.84,4.94c0,5.2-4.24,8.47-11.07,8.47s-11.07-3.22-11.47-8.67h6.78c.41,2.34,1.94,3.41,4.84,3.41,2.3,0,3.78-.91,3.78-2.39,0-1.18-.82-1.79-2.76-2.25l-4.48-1c-5.41-1.17-7.5-3.16-7.5-7.08,0-4.95,3.93-8,10.5-8,6.33,0,10.15,2.86,10.82,8.06Z"/>
  <path class="letter-black" d="M232.35,83.08c0,7.44-5.51,12.8-13.11,12.8s-13.05-5.36-13.05-13,5.4-13,13.05-13C227.05,69.92,232.35,75.22,232.35,83.08Zm-18.87-.21c0,4.64,2.09,7.24,5.81,7.24s5.77-2.6,5.77-7.08c0-4.75-2-7.35-5.82-7.35S213.48,78.28,213.48,82.87Z"/>
  <path class="letter-black" d="M244.1,70.58l-.2,2.91c2.09-2.6,3.87-3.57,6.93-3.57,6.48,0,10.86,5.2,10.86,12.9,0,7.86-4.33,13.06-10.81,13.06a8.88,8.88,0,0,1-6.63-2.66V103H237V70.58ZM244,82.87c0,4.39,2,7.14,5.3,7.14s5.26-2.75,5.26-7c0-4.44-2-7.2-5.31-7.2S244,78.54,244,82.87Z"/>
  <path class="letter-black" d="M273.61,70.58l-.2,2.91c2.09-2.6,3.87-3.57,6.93-3.57,6.48,0,10.86,5.2,10.86,12.9,0,7.86-4.33,13.06-10.81,13.06a8.88,8.88,0,0,1-6.63-2.66V103h-7.24V70.58Zm-.1,12.29c0,4.39,2,7.14,5.3,7.14s5.25-2.75,5.25-7c0-4.44-2-7.2-5.3-7.2S273.51,78.54,273.51,82.87Z"/>
  <path class="letter-black" d="M320.84,83.08c0,7.44-5.51,12.8-13.11,12.8s-13.05-5.36-13.05-13,5.4-13,13.05-13C315.54,69.92,320.84,75.22,320.84,83.08ZM302,82.87c0,4.64,2.09,7.24,5.81,7.24s5.77-2.6,5.77-7.08c0-4.75-2-7.35-5.82-7.35S302,78.28,302,82.87Z"/>
  <path class="letter-black" d="M332.59,70.58l-.2,4.39c1.42-4,3.26-5.1,8.51-5v6.83a12.86,12.86,0,0,0-1.83-.1c-2.5,0-4.54,1.12-5.36,3-.71,1.63-1,3.93-1,8.67v6.93H325.5V70.58Z"/>
  <path class="letter-black" d="M358.16,76h-4.44v9.59c0,3.87.15,4.18,1.83,4.18h2.61v5.45h-4.44c-3.16,0-4.74-.46-5.81-1.63s-1.43-2.55-1.43-6.37V76H343v-5.1h3.47v-7.8h7.24v7.8h4.44Z"/>
  <path class="letter-black" d="M384.62,95.21h-6.88v-2.7a7,7,0,0,1-6.53,3.37,9.2,9.2,0,0,1-6.53-2.55c-1.68-1.69-2.34-3.78-2.34-7.29V70.58h7.24V84.45c0,2.4.1,3,.76,3.88a3.83,3.83,0,0,0,3.17,1.43,3.73,3.73,0,0,0,3.11-1.43c.66-.87.76-1.43.76-3.88V70.58h7.24Z"/>
  <path class="letter-black" d="M397.62,70.58V73c2.65-2.45,4.18-3.11,6.73-3.11,5.36,0,8.62,3.57,8.62,9.38v16h-7.24V81.8c0-2.5-.15-3.47-.77-4.38A3.41,3.41,0,0,0,402,76a4.12,4.12,0,0,0-3.12,1.32c-.81.92-1.07,1.94-1.07,4.08V95.21h-7.24V70.58Z"/>
  <path class="letter-black" d="M426.11,67.17h-7.24v-6h7.24Zm0,28h-7.24V70.58h7.24Z"/>
  <path class="letter-black" d="M445,76h-4.44v9.59c0,3.87.16,4.18,1.84,4.18H445v5.45h-4.44c-3.16,0-4.74-.46-5.81-1.63s-1.43-2.55-1.43-6.37V76h-3.47v-5.1h3.47v-7.8h7.24v7.8H445Z"/>
  <path class="letter-black" d="M456.81,67.17h-7.24v-6h7.24Zm0,28h-7.24V70.58h7.24Z"/>
  <path class="letter-black" d="M468.77,85c.46,3.37,2.45,5.21,5.56,5.21a4.61,4.61,0,0,0,4.28-2.2H486c-1.38,4.8-6,7.86-11.84,7.86-7.59,0-12.64-5.2-12.64-13s5.15-13,12.59-13c5.21,0,9.13,2.6,11,7.24A20.11,20.11,0,0,1,486.26,85Zm10.05-5.09c-.31-2.91-2-4.49-4.8-4.49s-4.64,1.58-5.2,4.49Z"/>
  <path class="letter-black" d="M504.44,78c-.31-1.84-1.79-2.81-4.18-2.81-2.09,0-3.47.82-3.47,2,0,.92.71,1.38,3,1.89l4.54,1c3,.61,4.54,1.27,5.61,2.4a6.85,6.85,0,0,1,1.83,4.94c0,5.2-4.23,8.47-11.06,8.47s-11.07-3.22-11.48-8.67H496c.41,2.34,1.94,3.41,4.85,3.41,2.29,0,3.77-.91,3.77-2.39,0-1.18-.81-1.79-2.75-2.25l-4.49-1c-5.4-1.17-7.49-3.16-7.49-7.08,0-4.95,3.92-8,10.5-8,6.32,0,10.15,2.86,10.81,8.06Z"/>
  <path class="letter-black" d="M523.64,95.21H516.5V88.07h7.14Z"/>
</g>
<g class="text-row-3">
  <path class="letter-black" d="M10.45,149.58l-2.14,6.83H0l11.88-34h9.54l10.81,34H23.56l-1.84-6.83Zm6-19.58-4.13,13.31H20Z"/>
  <path class="letter-black" d="M50.54,140.66A4.18,4.18,0,0,0,46.06,137c-3.32,0-5.1,2.49-5.1,7,0,4.74,1.78,7.24,5.15,7.24,2.6,0,4-1.32,4.59-4.23l7,.36c-1,6.22-5.3,9.74-11.83,9.74-7.49,0-12.24-5-12.24-12.91,0-8.15,4.7-13,12.5-13,6.42,0,10.81,3.67,11.27,9.54Z"/>
  <path class="letter-black" d="M77.57,140.66A4.18,4.18,0,0,0,73.09,137c-3.32,0-5.1,2.49-5.1,7,0,4.74,1.78,7.24,5.15,7.24,2.6,0,4-1.32,4.59-4.23l7,.36c-1,6.22-5.3,9.74-11.83,9.74-7.49,0-12.24-5-12.24-12.91,0-8.15,4.7-13,12.5-13,6.42,0,10.81,3.67,11.27,9.54Z"/>
  <path class="letter-black" d="M95,146.21c.46,3.37,2.45,5.21,5.56,5.21a4.61,4.61,0,0,0,4.28-2.2h7.35c-1.38,4.8-6,7.86-11.83,7.86-7.6,0-12.65-5.2-12.65-13s5.15-13,12.59-13c5.21,0,9.13,2.6,11,7.24a19.92,19.92,0,0,1,1.22,7.85ZM105,141.12c-.31-2.91-2-4.49-4.8-4.49s-4.64,1.58-5.2,4.49Z"/>
  <path class="letter-black" d="M124.47,156.41h-7.24v-34h7.24Z"/>
  <path class="letter-black" d="M136.43,146.21c.46,3.37,2.45,5.21,5.56,5.21a4.6,4.6,0,0,0,4.28-2.2h7.35c-1.38,4.8-6,7.86-11.83,7.86-7.6,0-12.65-5.2-12.65-13s5.15-13,12.6-13c5.2,0,9.12,2.6,11,7.24a19.92,19.92,0,0,1,1.22,7.85Zm10-5.09c-.31-2.91-2-4.49-4.79-4.49s-4.65,1.58-5.21,4.49Z"/>
  <path class="letter-black" d="M165.7,131.78l-.2,4.39c1.43-4,3.26-5.1,8.51-5V138a12.86,12.86,0,0,0-1.83-.1c-2.5,0-4.54,1.12-5.36,3-.71,1.63-1,3.93-1,8.67v6.93h-7.24V131.78Z"/>
  <path class="letter-black" d="M177.33,139.54c.46-5.67,4-8.42,10.91-8.42,3.73,0,6.58.87,8.52,2.55,1.78,1.58,2.45,3.57,2.45,7.19v11.32c0,2.65.1,3,.91,4.23h-7.39a18.82,18.82,0,0,1-.56-1.93,9.61,9.61,0,0,1-7,2.6c-5.45,0-9.08-3.06-9.08-7.7s2.91-7,9.8-8.16l3.92-.67c1.63-.25,2.2-.66,2.2-1.68,0-1.37-1.43-2.24-3.78-2.24-2.65,0-4.08.92-4.38,2.91Zm14.84,5.15a14.56,14.56,0,0,1-2.65.76l-2.6.56c-2.6.61-3.73,1.48-3.73,3,0,1.63,1.38,2.6,3.68,2.6a5.66,5.66,0,0,0,5.3-3.11Z"/>
  <path class="letter-black" d="M217.58,137.19h-4.44v9.59c0,3.87.15,4.18,1.84,4.18h2.6v5.45h-4.44c-3.16,0-4.74-.45-5.81-1.63s-1.43-2.55-1.43-6.37V137.19h-3.47v-5.1h3.47v-7.8h7.24v7.8h4.44Z"/>
  <path class="letter-black" d="M227.48,146.21c.46,3.37,2.44,5.21,5.56,5.21a4.62,4.62,0,0,0,4.28-2.2h7.34c-1.37,4.8-6,7.86-11.83,7.86-7.6,0-12.65-5.2-12.65-13s5.15-13,12.6-13c5.2,0,9.13,2.6,11,7.24a19.91,19.91,0,0,1,1.23,7.85Zm10-5.09c-.3-2.91-2-4.49-4.79-4.49s-4.64,1.58-5.2,4.49Z"/>
  <g class="text-green">
  <path class="letter-green" d="M289,131.94v22.13c0,4-.56,5.81-2.29,7.49-2.25,2.2-5.61,3.32-9.85,3.32-6.88,0-11-2.81-11.52-7.85h7.5c.51,1.53,1.93,2.29,4.33,2.29a5.59,5.59,0,0,0,3.42-1c1.07-.86,1.37-1.78,1.37-4.28v-1.63a8.67,8.67,0,0,1-6.63,2.65c-6.47,0-11.11-5-11.11-11.88s4.69-12.09,10.91-12.09a7.88,7.88,0,0,1,7.19,3.83l-.15-3Zm-17.9,11.16c0,3.62,2.19,6.12,5.46,6.12S282,146.83,282,143c0-3.62-2.19-6-5.45-6S271.13,139.43,271.13,143.1Z"/>
  <path class="letter-green" d="M302.06,131.78l-.21,4.39c1.43-4,3.27-5.1,8.52-5V138a13,13,0,0,0-1.84-.1c-2.49,0-4.53,1.12-5.35,3-.71,1.63-1,3.93-1,8.67v6.93H295V131.78Z"/>
  <path class="letter-green" d="M338.77,144.28c0,7.44-5.51,12.8-13.11,12.8s-13.05-5.36-13.05-13,5.4-12.95,13.05-12.95S338.77,136.42,338.77,144.28Zm-18.87-.21c0,4.64,2.09,7.24,5.81,7.24s5.76-2.6,5.76-7.08c0-4.75-2-7.35-5.81-7.35S319.9,139.48,319.9,144.07Z"/>
  <path class="letter-green" d="M347.26,156.41l-7.34-24.63h7.34l2.09,8.06c.56,2.19,1.33,5.92,1.63,8,.72-3.68,1.33-6.53,1.68-8l2.09-8.06H361l2.19,8.06c.92,3.77,1.38,5.92,1.73,8,.41-2.55.87-4.8,1.59-8l1.93-8.06H376l-7,24.63h-6.93l-2.3-8.61c-.71-3-1.17-5.05-1.83-8.26-.72,3.41-1.33,6.11-1.84,8.26l-2,8.61Z"/>
  <path class="letter-green" d="M393,137.19h-4.44v9.59c0,3.87.16,4.18,1.84,4.18H393v5.45h-4.44c-3.16,0-4.74-.45-5.81-1.63s-1.43-2.55-1.43-6.37V137.19h-3.47v-5.1h3.47v-7.8h7.24v7.8H393Z"/>
  <path class="letter-green" d="M404.73,133.87a8.83,8.83,0,0,1,6.53-2.75,8.39,8.39,0,0,1,6.32,2.65c1.58,1.74,2.19,3.83,2.19,7.5v15.14h-7.24V142.59c0-2.29-.2-3.21-.81-4.08a3.49,3.49,0,0,0-2.86-1.27,4.53,4.53,0,0,0-3.16,1.22c-.82.87-1,1.58-1,4.13v13.82h-7.24v-34h7.24Z"/>
  <path class="letter-green" d="M432.88,156.41h-7.14v-7.14h7.14Z"/>
  </g>
</g>
</svg>
